%
M48
M72
T01C0.0200
T02C0.0315
T03C0.0400
%
T01
X43533Y6300
X44283Y6250
X45033Y6300
X44533Y5800
X46683Y6050
X49033Y6800
X48883Y8500
X49533Y8800
X50033Y9800
X48433Y9950
X48133Y10600
X46733Y10700
X46133Y10800
X49533Y10800
X51533Y12800
X45033Y13300
X43533Y14300
X49233Y5000
X51533Y2300
T02
X48033Y11800
X47033Y11800
X46033Y11800
T03
X41533Y1800
X41533Y2800
X41533Y3800
X41533Y4800
X41533Y5800
X41533Y6800
X41533Y7800
X41533Y8800
X41533Y9800
X44033Y10300
X41533Y10800
X44033Y11300
X44033Y12300
X41533Y11800
X41533Y12800
X41533Y13800
X41533Y14800
X41533Y15800
X52533Y15800
X52533Y14800
X52533Y13800
X52533Y12800
X52533Y11800
X52533Y10800
X52533Y9800
X52533Y8800
X52533Y7800
X52533Y6800
X52533Y5800
X52533Y4800
X52533Y3800
X52533Y2800
X52533Y1800
X48033Y2800
X47033Y2800
X46033Y2800
X46033Y3800
X47033Y3800
X48033Y3800
M30
