G75*
%MOIN*%
%OFA0B0*%
%FSLAX24Y24*%
%IPPOS*%
%LPD*%
%AMOC8*
5,1,8,0,0,1.08239X$1,22.5*
%
%ADD10C,0.0000*%
%ADD11C,0.0030*%
%ADD12C,0.0020*%
%ADD13C,0.0079*%
%ADD14C,0.0220*%
%ADD15C,0.0080*%
%ADD16R,0.0300X0.0180*%
%ADD17C,0.0060*%
D10*
X038833Y000300D02*
X038833Y017170D01*
X055625Y017170D01*
X055625Y000300D01*
X038833Y000300D01*
D11*
X039748Y001615D02*
X039748Y001985D01*
X039933Y001985D01*
X039995Y001924D01*
X039995Y001800D01*
X039933Y001738D01*
X039748Y001738D01*
X040117Y001615D02*
X040302Y001615D01*
X040364Y001677D01*
X040364Y001924D01*
X040302Y001985D01*
X040117Y001985D01*
X040117Y001615D01*
X040485Y001677D02*
X040547Y001615D01*
X040670Y001615D01*
X040732Y001677D01*
X040732Y001738D01*
X040670Y001800D01*
X040608Y001800D01*
X040670Y001800D02*
X040732Y001862D01*
X040732Y001924D01*
X040670Y001985D01*
X040547Y001985D01*
X040485Y001924D01*
X040302Y002615D02*
X040364Y002677D01*
X040364Y002924D01*
X040302Y002985D01*
X040117Y002985D01*
X040117Y002615D01*
X040302Y002615D01*
X040485Y002800D02*
X040732Y002800D01*
X040670Y002615D02*
X040670Y002985D01*
X040485Y002800D01*
X039995Y002800D02*
X039995Y002924D01*
X039933Y002985D01*
X039748Y002985D01*
X039748Y002615D01*
X039748Y002738D02*
X039933Y002738D01*
X039995Y002800D01*
X040078Y003615D02*
X040202Y003615D01*
X040264Y003677D01*
X040385Y003738D02*
X040632Y003985D01*
X040385Y003985D02*
X040385Y003615D01*
X040447Y003800D02*
X040632Y003615D01*
X040078Y003615D02*
X040017Y003677D01*
X040017Y003924D01*
X040078Y003985D01*
X040202Y003985D01*
X040264Y003924D01*
X039895Y003924D02*
X039833Y003985D01*
X039710Y003985D01*
X039648Y003924D01*
X039648Y003862D01*
X039710Y003800D01*
X039833Y003800D01*
X039895Y003738D01*
X039895Y003677D01*
X039833Y003615D01*
X039710Y003615D01*
X039648Y003677D01*
X039745Y004665D02*
X039745Y005035D01*
X039622Y004912D01*
X039498Y005035D01*
X039498Y004665D01*
X039867Y004665D02*
X039990Y004665D01*
X039928Y004665D02*
X039928Y005035D01*
X039867Y005035D02*
X039990Y005035D01*
X040112Y004974D02*
X040112Y004912D01*
X040174Y004850D01*
X040297Y004850D01*
X040359Y004788D01*
X040359Y004727D01*
X040297Y004665D01*
X040174Y004665D01*
X040112Y004727D01*
X040481Y004727D02*
X040542Y004665D01*
X040666Y004665D01*
X040727Y004727D01*
X040727Y004974D01*
X040666Y005035D01*
X040542Y005035D01*
X040481Y004974D01*
X040481Y004727D01*
X040359Y004974D02*
X040297Y005035D01*
X040174Y005035D01*
X040112Y004974D01*
X040052Y005615D02*
X040114Y005677D01*
X040114Y005924D01*
X040052Y005985D01*
X039928Y005985D01*
X039867Y005924D01*
X039867Y005677D01*
X039928Y005615D01*
X040052Y005615D01*
X040235Y005677D02*
X040297Y005615D01*
X040420Y005615D01*
X040482Y005677D01*
X040482Y005738D01*
X040420Y005800D01*
X040297Y005800D01*
X040235Y005862D01*
X040235Y005924D01*
X040297Y005985D01*
X040420Y005985D01*
X040482Y005924D01*
X040603Y005985D02*
X040727Y005985D01*
X040665Y005985D02*
X040665Y005615D01*
X040603Y005615D02*
X040727Y005615D01*
X039745Y005615D02*
X039745Y005985D01*
X039622Y005862D01*
X039498Y005985D01*
X039498Y005615D01*
X039798Y006615D02*
X039798Y006985D01*
X039983Y006985D01*
X040045Y006924D01*
X040045Y006800D01*
X039983Y006738D01*
X039798Y006738D01*
X040167Y006800D02*
X040352Y006800D01*
X040414Y006738D01*
X040414Y006677D01*
X040352Y006615D01*
X040167Y006615D01*
X040167Y006985D01*
X040352Y006985D01*
X040414Y006924D01*
X040414Y006862D01*
X040352Y006800D01*
X040535Y006924D02*
X040597Y006985D01*
X040720Y006985D01*
X040782Y006924D01*
X040782Y006862D01*
X040535Y006615D01*
X040782Y006615D01*
X040832Y007665D02*
X040585Y007665D01*
X040708Y007665D02*
X040708Y008035D01*
X040585Y007912D01*
X040464Y007912D02*
X040402Y007850D01*
X040217Y007850D01*
X040095Y007850D02*
X040033Y007788D01*
X039848Y007788D01*
X039848Y007665D02*
X039848Y008035D01*
X040033Y008035D01*
X040095Y007974D01*
X040095Y007850D01*
X040217Y007665D02*
X040402Y007665D01*
X040464Y007727D01*
X040464Y007788D01*
X040402Y007850D01*
X040464Y007912D02*
X040464Y007974D01*
X040402Y008035D01*
X040217Y008035D01*
X040217Y007665D01*
X040217Y008615D02*
X040402Y008615D01*
X040464Y008677D01*
X040464Y008738D01*
X040402Y008800D01*
X040217Y008800D01*
X040095Y008800D02*
X040033Y008738D01*
X039848Y008738D01*
X039848Y008615D02*
X039848Y008985D01*
X040033Y008985D01*
X040095Y008924D01*
X040095Y008800D01*
X040217Y008615D02*
X040217Y008985D01*
X040402Y008985D01*
X040464Y008924D01*
X040464Y008862D01*
X040402Y008800D01*
X040585Y008677D02*
X040832Y008924D01*
X040832Y008677D01*
X040770Y008615D01*
X040647Y008615D01*
X040585Y008677D01*
X040585Y008924D01*
X040647Y008985D01*
X040770Y008985D01*
X040832Y008924D01*
X040585Y009565D02*
X040585Y009627D01*
X040832Y009874D01*
X040832Y009935D01*
X040585Y009935D01*
X040464Y009874D02*
X040402Y009935D01*
X040217Y009935D01*
X040217Y009565D01*
X040402Y009565D01*
X040464Y009627D01*
X040464Y009874D01*
X040095Y009874D02*
X040095Y009750D01*
X040033Y009688D01*
X039848Y009688D01*
X039848Y009565D02*
X039848Y009935D01*
X040033Y009935D01*
X040095Y009874D01*
X040217Y010565D02*
X040402Y010565D01*
X040464Y010627D01*
X040464Y010874D01*
X040402Y010935D01*
X040217Y010935D01*
X040217Y010565D01*
X040033Y010688D02*
X039848Y010688D01*
X039848Y010565D02*
X039848Y010935D01*
X040033Y010935D01*
X040095Y010874D01*
X040095Y010750D01*
X040033Y010688D01*
X040585Y010750D02*
X040585Y010627D01*
X040647Y010565D01*
X040770Y010565D01*
X040832Y010627D01*
X040832Y010688D01*
X040770Y010750D01*
X040585Y010750D01*
X040708Y010874D01*
X040832Y010935D01*
X040770Y011615D02*
X040647Y011615D01*
X040585Y011677D01*
X040464Y011677D02*
X040464Y011924D01*
X040402Y011985D01*
X040217Y011985D01*
X040217Y011615D01*
X040402Y011615D01*
X040464Y011677D01*
X040585Y011800D02*
X040708Y011862D01*
X040770Y011862D01*
X040832Y011800D01*
X040832Y011677D01*
X040770Y011615D01*
X040095Y011800D02*
X040033Y011738D01*
X039848Y011738D01*
X039848Y011615D02*
X039848Y011985D01*
X040033Y011985D01*
X040095Y011924D01*
X040095Y011800D01*
X040585Y011800D02*
X040585Y011985D01*
X040832Y011985D01*
X040620Y012565D02*
X040682Y012627D01*
X040682Y012874D01*
X040620Y012935D01*
X040435Y012935D01*
X040435Y012565D01*
X040620Y012565D01*
X040314Y012565D02*
X040314Y012935D01*
X040067Y012935D02*
X040314Y012565D01*
X040067Y012565D02*
X040067Y012935D01*
X039945Y012874D02*
X039883Y012935D01*
X039760Y012935D01*
X039698Y012874D01*
X039698Y012627D01*
X039760Y012565D01*
X039883Y012565D01*
X039945Y012627D01*
X039945Y012750D01*
X039822Y012750D01*
X040260Y013615D02*
X040198Y013677D01*
X040260Y013615D02*
X040383Y013615D01*
X040445Y013677D01*
X040445Y013800D01*
X040383Y013862D01*
X040322Y013862D01*
X040198Y013800D01*
X040198Y013985D01*
X040445Y013985D01*
X040567Y013985D02*
X040567Y013738D01*
X040690Y013615D01*
X040814Y013738D01*
X040814Y013985D01*
X040809Y014615D02*
X040809Y014985D01*
X040562Y014985D02*
X040809Y014615D01*
X040562Y014615D02*
X040562Y014985D01*
X040440Y014985D02*
X040317Y014985D01*
X040378Y014985D02*
X040378Y014615D01*
X040317Y014615D02*
X040440Y014615D01*
X040195Y014738D02*
X040195Y014985D01*
X039948Y014985D02*
X039948Y014738D01*
X040072Y014615D01*
X040195Y014738D01*
X040140Y015615D02*
X040264Y015738D01*
X040264Y015985D01*
X040385Y015985D02*
X040508Y015985D01*
X040447Y015985D02*
X040447Y015615D01*
X040508Y015615D02*
X040385Y015615D01*
X040140Y015615D02*
X040017Y015738D01*
X040017Y015985D01*
X039895Y015985D02*
X039648Y015985D01*
X039648Y015800D01*
X039772Y015862D01*
X039833Y015862D01*
X039895Y015800D01*
X039895Y015677D01*
X039833Y015615D01*
X039710Y015615D01*
X039648Y015677D01*
X040631Y015615D02*
X040631Y015985D01*
X040877Y015615D01*
X040877Y015985D01*
X053248Y015985D02*
X053248Y015615D01*
X053248Y015738D02*
X053433Y015738D01*
X053495Y015800D01*
X053495Y015924D01*
X053433Y015985D01*
X053248Y015985D01*
X053617Y015985D02*
X053802Y015985D01*
X053864Y015924D01*
X053864Y015677D01*
X053802Y015615D01*
X053617Y015615D01*
X053617Y015985D01*
X053985Y015924D02*
X054047Y015985D01*
X054170Y015985D01*
X054232Y015924D01*
X054232Y015862D01*
X053985Y015615D01*
X054232Y015615D01*
X054170Y014985D02*
X053985Y014985D01*
X053985Y014615D01*
X054170Y014615D01*
X054232Y014677D01*
X054232Y014924D01*
X054170Y014985D01*
X053864Y014985D02*
X053617Y014615D01*
X053372Y014615D02*
X053372Y014985D01*
X053495Y014985D02*
X053248Y014985D01*
X053617Y014985D02*
X053864Y014615D01*
X053864Y013985D02*
X053617Y013615D01*
X053495Y013615D02*
X053372Y013738D01*
X053433Y013738D02*
X053248Y013738D01*
X053248Y013615D02*
X053248Y013985D01*
X053433Y013985D01*
X053495Y013924D01*
X053495Y013800D01*
X053433Y013738D01*
X053617Y013985D02*
X053864Y013615D01*
X053985Y013615D02*
X054170Y013615D01*
X054232Y013677D01*
X054232Y013924D01*
X054170Y013985D01*
X053985Y013985D01*
X053985Y013615D01*
X053985Y012985D02*
X053985Y012615D01*
X054232Y012615D01*
X053864Y012677D02*
X053802Y012615D01*
X053678Y012615D01*
X053617Y012677D01*
X053617Y012924D01*
X053678Y012985D01*
X053802Y012985D01*
X053864Y012924D01*
X053495Y012924D02*
X053433Y012985D01*
X053310Y012985D01*
X053248Y012924D01*
X053248Y012862D01*
X053310Y012800D01*
X053433Y012800D01*
X053495Y012738D01*
X053495Y012677D01*
X053433Y012615D01*
X053310Y012615D01*
X053248Y012677D01*
X053310Y011985D02*
X053248Y011924D01*
X053248Y011862D01*
X053310Y011800D01*
X053433Y011800D01*
X053495Y011738D01*
X053495Y011677D01*
X053433Y011615D01*
X053310Y011615D01*
X053248Y011677D01*
X053495Y011924D02*
X053433Y011985D01*
X053310Y011985D01*
X053617Y011985D02*
X053802Y011985D01*
X053864Y011924D01*
X053864Y011677D01*
X053802Y011615D01*
X053617Y011615D01*
X053617Y011985D01*
X053985Y011862D02*
X054108Y011985D01*
X054232Y011862D01*
X054232Y011615D01*
X053985Y011615D02*
X053985Y011862D01*
X053985Y011800D02*
X054232Y011800D01*
X054170Y010985D02*
X054047Y010985D01*
X053985Y010924D01*
X053985Y010677D01*
X054047Y010615D01*
X054170Y010615D01*
X054232Y010677D01*
X054353Y010677D02*
X054415Y010615D01*
X054538Y010615D01*
X054600Y010677D01*
X054600Y010738D01*
X054538Y010800D01*
X054477Y010800D01*
X054538Y010800D02*
X054600Y010862D01*
X054600Y010924D01*
X054538Y010985D01*
X054415Y010985D01*
X054353Y010924D01*
X054232Y010924D02*
X054170Y010985D01*
X053864Y010924D02*
X053802Y010985D01*
X053617Y010985D01*
X053617Y010615D01*
X053802Y010615D01*
X053864Y010677D01*
X053864Y010924D01*
X053495Y010862D02*
X053372Y010985D01*
X053248Y010862D01*
X053248Y010615D01*
X053248Y010800D02*
X053495Y010800D01*
X053495Y010862D02*
X053495Y010615D01*
X053617Y009985D02*
X053802Y009985D01*
X053864Y009924D01*
X053864Y009677D01*
X053802Y009615D01*
X053617Y009615D01*
X053617Y009985D01*
X053495Y009862D02*
X053495Y009615D01*
X053495Y009800D02*
X053248Y009800D01*
X053248Y009862D02*
X053248Y009615D01*
X053248Y009862D02*
X053372Y009985D01*
X053495Y009862D01*
X053985Y009924D02*
X053985Y009677D01*
X054047Y009615D01*
X054170Y009615D01*
X054232Y009677D01*
X054353Y009615D02*
X054600Y009862D01*
X054600Y009924D01*
X054538Y009985D01*
X054415Y009985D01*
X054353Y009924D01*
X054232Y009924D02*
X054170Y009985D01*
X054047Y009985D01*
X053985Y009924D01*
X054353Y009615D02*
X054600Y009615D01*
X054477Y008985D02*
X054477Y008615D01*
X054600Y008615D02*
X054353Y008615D01*
X054232Y008677D02*
X054170Y008615D01*
X054047Y008615D01*
X053985Y008677D01*
X053985Y008924D01*
X054047Y008985D01*
X054170Y008985D01*
X054232Y008924D01*
X054353Y008862D02*
X054477Y008985D01*
X053864Y008924D02*
X053864Y008677D01*
X053802Y008615D01*
X053617Y008615D01*
X053617Y008985D01*
X053802Y008985D01*
X053864Y008924D01*
X053495Y008862D02*
X053495Y008615D01*
X053248Y008615D02*
X053248Y008862D01*
X053372Y008985D01*
X053495Y008862D01*
X053495Y008800D02*
X053248Y008800D01*
X053372Y007985D02*
X053495Y007862D01*
X053495Y007615D01*
X053617Y007615D02*
X053802Y007615D01*
X053864Y007677D01*
X053864Y007924D01*
X053802Y007985D01*
X053617Y007985D01*
X053617Y007615D01*
X053495Y007800D02*
X053248Y007800D01*
X053248Y007862D02*
X053372Y007985D01*
X053248Y007862D02*
X053248Y007615D01*
X053985Y007677D02*
X053985Y007924D01*
X054047Y007985D01*
X054170Y007985D01*
X054232Y007924D01*
X054353Y007924D02*
X054415Y007985D01*
X054538Y007985D01*
X054600Y007924D01*
X054353Y007677D01*
X054415Y007615D01*
X054538Y007615D01*
X054600Y007677D01*
X054600Y007924D01*
X054353Y007924D02*
X054353Y007677D01*
X054232Y007677D02*
X054170Y007615D01*
X054047Y007615D01*
X053985Y007677D01*
X054047Y006985D02*
X053985Y006924D01*
X053985Y006677D01*
X054047Y006615D01*
X054170Y006615D01*
X054232Y006677D01*
X054353Y006677D02*
X054353Y006615D01*
X054353Y006677D02*
X054600Y006924D01*
X054600Y006985D01*
X054353Y006985D01*
X054232Y006924D02*
X054170Y006985D01*
X054047Y006985D01*
X053864Y006924D02*
X053802Y006985D01*
X053617Y006985D01*
X053617Y006615D01*
X053802Y006615D01*
X053864Y006677D01*
X053864Y006924D01*
X053495Y006862D02*
X053372Y006985D01*
X053248Y006862D01*
X053248Y006615D01*
X053248Y006800D02*
X053495Y006800D01*
X053495Y006862D02*
X053495Y006615D01*
X053617Y005985D02*
X053802Y005985D01*
X053864Y005924D01*
X053864Y005677D01*
X053802Y005615D01*
X053617Y005615D01*
X053617Y005985D01*
X053495Y005862D02*
X053372Y005985D01*
X053248Y005862D01*
X053248Y005615D01*
X053248Y005800D02*
X053495Y005800D01*
X053495Y005862D02*
X053495Y005615D01*
X053985Y005677D02*
X054047Y005615D01*
X054170Y005615D01*
X054232Y005677D01*
X054353Y005677D02*
X054415Y005615D01*
X054538Y005615D01*
X054600Y005677D01*
X054600Y005738D01*
X054538Y005800D01*
X054353Y005800D01*
X054353Y005677D01*
X054353Y005800D02*
X054477Y005924D01*
X054600Y005985D01*
X054232Y005924D02*
X054170Y005985D01*
X054047Y005985D01*
X053985Y005924D01*
X053985Y005677D01*
X054047Y004985D02*
X053985Y004924D01*
X053985Y004862D01*
X054047Y004800D01*
X054170Y004800D01*
X054232Y004738D01*
X054232Y004677D01*
X054170Y004615D01*
X054047Y004615D01*
X053985Y004677D01*
X053864Y004615D02*
X053617Y004615D01*
X053617Y004985D01*
X053864Y004985D01*
X054047Y004985D02*
X054170Y004985D01*
X054232Y004924D01*
X054353Y004985D02*
X054353Y004615D01*
X054600Y004615D01*
X054477Y004800D02*
X054353Y004800D01*
X054353Y004985D02*
X054600Y004985D01*
X054722Y004985D02*
X054968Y004985D01*
X054845Y004985D02*
X054845Y004615D01*
X053740Y004800D02*
X053617Y004800D01*
X053495Y004800D02*
X053433Y004738D01*
X053248Y004738D01*
X053248Y004615D02*
X053248Y004985D01*
X053433Y004985D01*
X053495Y004924D01*
X053495Y004800D01*
X053372Y004738D02*
X053495Y004615D01*
X053617Y003985D02*
X053802Y003985D01*
X053864Y003924D01*
X053864Y003800D01*
X053802Y003738D01*
X053617Y003738D01*
X053617Y003615D02*
X053617Y003985D01*
X053495Y003862D02*
X053372Y003985D01*
X053248Y003862D01*
X053248Y003615D01*
X053248Y003800D02*
X053495Y003800D01*
X053495Y003862D02*
X053495Y003615D01*
X053740Y003738D02*
X053864Y003615D01*
X053985Y003615D02*
X054232Y003615D01*
X054353Y003615D02*
X054353Y003985D01*
X054600Y003985D01*
X054477Y003800D02*
X054353Y003800D01*
X054232Y003985D02*
X053985Y003985D01*
X053985Y003615D01*
X053985Y003800D02*
X054108Y003800D01*
X054170Y002985D02*
X053985Y002985D01*
X053985Y002615D01*
X054170Y002615D01*
X054232Y002677D01*
X054232Y002924D01*
X054170Y002985D01*
X053864Y002985D02*
X053864Y002615D01*
X053617Y002985D01*
X053617Y002615D01*
X053495Y002677D02*
X053433Y002615D01*
X053310Y002615D01*
X053248Y002677D01*
X053248Y002924D01*
X053310Y002985D01*
X053433Y002985D01*
X053495Y002924D01*
X053495Y002800D02*
X053372Y002800D01*
X053495Y002800D02*
X053495Y002677D01*
X053433Y001985D02*
X053310Y001985D01*
X053248Y001924D01*
X053248Y001677D01*
X053310Y001615D01*
X053433Y001615D01*
X053495Y001677D01*
X053495Y001800D01*
X053372Y001800D01*
X053495Y001924D02*
X053433Y001985D01*
X053617Y001985D02*
X053864Y001615D01*
X053864Y001985D01*
X053985Y001985D02*
X054170Y001985D01*
X054232Y001924D01*
X054232Y001677D01*
X054170Y001615D01*
X053985Y001615D01*
X053985Y001985D01*
X053617Y001985D02*
X053617Y001615D01*
D12*
X048173Y001589D02*
X048173Y001776D01*
X048033Y001682D02*
X048033Y001589D01*
X048080Y001499D02*
X048127Y001499D01*
X048173Y001453D01*
X048173Y001359D01*
X048127Y001312D01*
X048173Y001223D02*
X048173Y001036D01*
X047893Y001036D01*
X047893Y001223D01*
X047940Y001312D02*
X047987Y001312D01*
X048033Y001359D01*
X048033Y001453D01*
X048080Y001499D01*
X048173Y001589D02*
X047893Y001589D01*
X047893Y001776D01*
X047893Y001865D02*
X047893Y002052D01*
X047893Y001958D02*
X048173Y001958D01*
X047173Y001949D02*
X047033Y001809D01*
X047080Y001762D02*
X046893Y001949D01*
X046893Y001762D02*
X047173Y001762D01*
X047127Y001673D02*
X047173Y001626D01*
X047173Y001533D01*
X047127Y001486D01*
X046940Y001486D01*
X046893Y001533D01*
X046893Y001626D01*
X046940Y001673D01*
X046223Y001611D02*
X046223Y001517D01*
X046177Y001470D01*
X046223Y001380D02*
X046223Y001286D01*
X046223Y001333D02*
X045943Y001333D01*
X045943Y001286D02*
X045943Y001380D01*
X045990Y001470D02*
X046037Y001470D01*
X046083Y001517D01*
X046083Y001611D01*
X046130Y001657D01*
X046177Y001657D01*
X046223Y001611D01*
X046177Y001747D02*
X046223Y001793D01*
X046223Y001887D01*
X046177Y001933D01*
X045990Y001933D01*
X045943Y001887D01*
X045943Y001793D01*
X045990Y001747D01*
X046177Y001747D01*
X045990Y001657D02*
X045943Y001611D01*
X045943Y001517D01*
X045990Y001470D01*
X045943Y001197D02*
X046223Y001197D01*
X046223Y001010D02*
X045943Y001010D01*
X046037Y001103D01*
X045943Y001197D01*
X046893Y001257D02*
X046940Y001210D01*
X046987Y001210D01*
X047033Y001257D01*
X047033Y001350D01*
X047080Y001397D01*
X047127Y001397D01*
X047173Y001350D01*
X047173Y001257D01*
X047127Y001210D01*
X046893Y001257D02*
X046893Y001350D01*
X046940Y001397D01*
X047893Y001359D02*
X047940Y001312D01*
X047893Y001359D02*
X047893Y001453D01*
X047940Y001499D01*
X048033Y001130D02*
X048033Y001036D01*
X048033Y000947D02*
X048080Y000900D01*
X048080Y000760D01*
X048173Y000760D02*
X047893Y000760D01*
X047893Y000900D01*
X047940Y000947D01*
X048033Y000947D01*
X048080Y000853D02*
X048173Y000947D01*
X048177Y004510D02*
X048223Y004557D01*
X048223Y004650D01*
X048177Y004697D01*
X048083Y004697D01*
X048083Y004603D01*
X047990Y004510D02*
X048177Y004510D01*
X047990Y004510D02*
X047943Y004557D01*
X047943Y004650D01*
X047990Y004697D01*
X047943Y004786D02*
X048223Y004973D01*
X047943Y004973D01*
X047943Y005062D02*
X047943Y005203D01*
X047990Y005249D01*
X048177Y005249D01*
X048223Y005203D01*
X048223Y005062D01*
X047943Y005062D01*
X047943Y004786D02*
X048223Y004786D01*
X047223Y004833D02*
X047223Y004926D01*
X047177Y004973D01*
X046990Y004973D01*
X046943Y004926D01*
X046943Y004833D01*
X046990Y004786D01*
X047177Y004786D01*
X047223Y004833D01*
X047223Y004697D02*
X046943Y004697D01*
X047037Y004603D01*
X046943Y004510D01*
X047223Y004510D01*
X046223Y004557D02*
X046177Y004510D01*
X046223Y004557D02*
X046223Y004650D01*
X046177Y004697D01*
X046083Y004697D01*
X046037Y004650D01*
X046037Y004603D01*
X046083Y004510D01*
X045943Y004510D01*
X045943Y004697D01*
X045943Y004786D02*
X046130Y004786D01*
X046223Y004880D01*
X046130Y004973D01*
X045943Y004973D01*
X046943Y005109D02*
X046990Y005062D01*
X047037Y005062D01*
X047083Y005109D01*
X047083Y005203D01*
X047130Y005249D01*
X047177Y005249D01*
X047223Y005203D01*
X047223Y005109D01*
X047177Y005062D01*
X046943Y005109D02*
X046943Y005203D01*
X046990Y005249D01*
X046943Y005339D02*
X046943Y005432D01*
X046943Y005385D02*
X047223Y005385D01*
X047223Y005339D02*
X047223Y005432D01*
X043417Y010160D02*
X043417Y010440D01*
X043230Y010440D02*
X043417Y010160D01*
X043230Y010160D02*
X043230Y010440D01*
X043139Y010440D02*
X043046Y010440D01*
X043093Y010440D02*
X043093Y010160D01*
X043139Y010160D02*
X043046Y010160D01*
X042956Y010253D02*
X042863Y010160D01*
X042770Y010253D01*
X042770Y010440D01*
X042680Y010440D02*
X042493Y010440D01*
X042493Y010300D01*
X042587Y010347D01*
X042633Y010347D01*
X042680Y010300D01*
X042680Y010207D01*
X042633Y010160D01*
X042540Y010160D01*
X042493Y010207D01*
X042956Y010253D02*
X042956Y010440D01*
X042883Y011110D02*
X042790Y011110D01*
X042743Y011157D01*
X042743Y011250D02*
X042837Y011297D01*
X042883Y011297D01*
X042930Y011250D01*
X042930Y011157D01*
X042883Y011110D01*
X043020Y011203D02*
X043113Y011110D01*
X043206Y011203D01*
X043206Y011390D01*
X043020Y011390D02*
X043020Y011203D01*
X042930Y011390D02*
X042743Y011390D01*
X042743Y011250D01*
X042770Y012160D02*
X042956Y012160D01*
X043046Y012207D02*
X043093Y012160D01*
X043186Y012160D01*
X043233Y012207D01*
X043233Y012300D01*
X043139Y012300D01*
X043046Y012207D02*
X043046Y012394D01*
X043093Y012440D01*
X043186Y012440D01*
X043233Y012394D01*
X042956Y012440D02*
X042770Y012440D01*
X042770Y012160D01*
X042680Y012160D02*
X042587Y012253D01*
X042633Y012253D02*
X042493Y012253D01*
X042493Y012160D02*
X042493Y012440D01*
X042633Y012440D01*
X042680Y012394D01*
X042680Y012300D01*
X042633Y012253D01*
X042770Y012300D02*
X042863Y012300D01*
D13*
X049187Y012095D02*
X049187Y011611D01*
X049403Y011454D01*
X050880Y011454D01*
X050880Y012095D01*
X050797Y012095D02*
X050781Y012043D01*
X050762Y011992D01*
X050739Y011943D01*
X050713Y011895D01*
X050683Y011849D01*
X050650Y011806D01*
X050615Y011764D01*
X050577Y011725D01*
X050536Y011689D01*
X050493Y011656D01*
X050447Y011626D01*
X050400Y011599D01*
X050351Y011576D01*
X050300Y011555D01*
X050248Y011539D01*
X050195Y011526D01*
X050142Y011516D01*
X050087Y011511D01*
X050033Y011509D01*
X049979Y011511D01*
X049924Y011516D01*
X049871Y011526D01*
X049818Y011539D01*
X049766Y011555D01*
X049715Y011576D01*
X049666Y011599D01*
X049619Y011626D01*
X049573Y011656D01*
X049530Y011689D01*
X049489Y011725D01*
X049451Y011764D01*
X049416Y011806D01*
X049383Y011849D01*
X049353Y011895D01*
X049327Y011943D01*
X049304Y011992D01*
X049285Y012043D01*
X049269Y012095D01*
X049265Y012497D02*
X049281Y012549D01*
X049300Y012600D01*
X049323Y012649D01*
X049349Y012697D01*
X049379Y012743D01*
X049412Y012786D01*
X049447Y012828D01*
X049485Y012867D01*
X049526Y012903D01*
X049569Y012936D01*
X049615Y012966D01*
X049662Y012993D01*
X049711Y013016D01*
X049762Y013037D01*
X049814Y013053D01*
X049867Y013066D01*
X049920Y013076D01*
X049975Y013081D01*
X050029Y013083D01*
X050083Y013081D01*
X050138Y013076D01*
X050191Y013066D01*
X050244Y013053D01*
X050296Y013037D01*
X050347Y013016D01*
X050396Y012993D01*
X050443Y012966D01*
X050489Y012936D01*
X050532Y012903D01*
X050573Y012867D01*
X050611Y012828D01*
X050646Y012786D01*
X050679Y012743D01*
X050709Y012697D01*
X050735Y012649D01*
X050758Y012600D01*
X050777Y012549D01*
X050793Y012497D01*
X050880Y012505D02*
X050880Y013146D01*
X049403Y013146D01*
X049187Y012989D01*
X049187Y012505D01*
X049403Y013954D02*
X049187Y014111D01*
X049187Y014595D01*
X049265Y014997D02*
X049281Y015049D01*
X049300Y015100D01*
X049323Y015149D01*
X049349Y015197D01*
X049379Y015243D01*
X049412Y015286D01*
X049447Y015328D01*
X049485Y015367D01*
X049526Y015403D01*
X049569Y015436D01*
X049615Y015466D01*
X049662Y015493D01*
X049711Y015516D01*
X049762Y015537D01*
X049814Y015553D01*
X049867Y015566D01*
X049920Y015576D01*
X049975Y015581D01*
X050029Y015583D01*
X050083Y015581D01*
X050138Y015576D01*
X050191Y015566D01*
X050244Y015553D01*
X050296Y015537D01*
X050347Y015516D01*
X050396Y015493D01*
X050443Y015466D01*
X050489Y015436D01*
X050532Y015403D01*
X050573Y015367D01*
X050611Y015328D01*
X050646Y015286D01*
X050679Y015243D01*
X050709Y015197D01*
X050735Y015149D01*
X050758Y015100D01*
X050777Y015049D01*
X050793Y014997D01*
X050880Y015005D02*
X050880Y015646D01*
X049403Y015646D01*
X049187Y015489D01*
X049187Y015005D01*
X049269Y014595D02*
X049285Y014543D01*
X049304Y014492D01*
X049327Y014443D01*
X049353Y014395D01*
X049383Y014349D01*
X049416Y014306D01*
X049451Y014264D01*
X049489Y014225D01*
X049530Y014189D01*
X049573Y014156D01*
X049619Y014126D01*
X049666Y014099D01*
X049715Y014076D01*
X049766Y014055D01*
X049818Y014039D01*
X049871Y014026D01*
X049924Y014016D01*
X049979Y014011D01*
X050033Y014009D01*
X050087Y014011D01*
X050142Y014016D01*
X050195Y014026D01*
X050248Y014039D01*
X050300Y014055D01*
X050351Y014076D01*
X050400Y014099D01*
X050447Y014126D01*
X050493Y014156D01*
X050536Y014189D01*
X050577Y014225D01*
X050615Y014264D01*
X050650Y014306D01*
X050683Y014349D01*
X050713Y014395D01*
X050739Y014443D01*
X050762Y014492D01*
X050781Y014543D01*
X050797Y014595D01*
X050880Y014595D02*
X050880Y013954D01*
X049403Y013954D01*
D14*
X044545Y004800D02*
X044521Y004800D01*
D15*
X045533Y004050D02*
X045783Y004300D01*
X046283Y004300D01*
X046533Y004050D01*
X046533Y002550D01*
X046783Y002300D01*
X047283Y002300D01*
X047533Y002550D01*
X047533Y004050D01*
X047783Y004300D01*
X048283Y004300D01*
X048533Y004050D01*
X048533Y002550D01*
X048283Y002300D01*
X047783Y002300D01*
X047533Y002550D01*
X046533Y002550D02*
X046283Y002300D01*
X045783Y002300D01*
X045533Y002550D01*
X045533Y004050D01*
X046533Y004050D02*
X046783Y004300D01*
X047283Y004300D01*
X047533Y004050D01*
X047933Y012500D02*
X047754Y012518D01*
X047574Y012532D01*
X047394Y012542D01*
X047213Y012548D01*
X047033Y012550D01*
X046853Y012548D01*
X046672Y012542D01*
X046492Y012532D01*
X046312Y012518D01*
X046133Y012500D01*
X046383Y013010D02*
X046383Y015590D01*
X047683Y015590D01*
X047683Y013010D01*
X046383Y013010D01*
X044533Y012550D02*
X044283Y012800D01*
X043783Y012800D01*
X043533Y012550D01*
X043533Y012050D01*
X043783Y011800D01*
X043533Y011550D01*
X043533Y011050D01*
X043783Y010800D01*
X043533Y010550D01*
X043533Y010050D01*
X043783Y009800D01*
X044283Y009800D01*
X044533Y010050D01*
X044533Y010550D01*
X044283Y010800D01*
X044533Y011050D01*
X044533Y011550D01*
X044283Y011800D01*
X044533Y012050D01*
X044533Y012550D01*
X046134Y012500D02*
X046082Y012490D01*
X046031Y012476D01*
X045981Y012458D01*
X045933Y012437D01*
X045886Y012412D01*
X045842Y012384D01*
X045799Y012352D01*
X045759Y012318D01*
X045722Y012280D01*
X045688Y012240D01*
X045656Y012198D01*
X045628Y012153D01*
X045604Y012106D01*
X045583Y012058D01*
X045565Y012008D01*
X045552Y011957D01*
X045542Y011905D01*
X045536Y011853D01*
X045534Y011800D01*
X045536Y011747D01*
X045542Y011695D01*
X045552Y011643D01*
X045565Y011592D01*
X045583Y011542D01*
X045604Y011494D01*
X045628Y011447D01*
X045656Y011402D01*
X045688Y011360D01*
X045722Y011320D01*
X045759Y011282D01*
X045799Y011248D01*
X045842Y011216D01*
X045886Y011188D01*
X045933Y011163D01*
X045981Y011142D01*
X046031Y011124D01*
X046082Y011110D01*
X046134Y011100D01*
X047933Y011100D02*
X047985Y011110D01*
X048036Y011124D01*
X048086Y011142D01*
X048134Y011163D01*
X048181Y011188D01*
X048225Y011216D01*
X048268Y011248D01*
X048308Y011282D01*
X048345Y011320D01*
X048379Y011360D01*
X048411Y011402D01*
X048439Y011447D01*
X048463Y011494D01*
X048484Y011542D01*
X048502Y011592D01*
X048515Y011643D01*
X048525Y011695D01*
X048531Y011747D01*
X048533Y011800D01*
X048531Y011853D01*
X048525Y011905D01*
X048515Y011957D01*
X048502Y012008D01*
X048484Y012058D01*
X048463Y012106D01*
X048439Y012153D01*
X048411Y012198D01*
X048379Y012240D01*
X048345Y012280D01*
X048308Y012318D01*
X048268Y012352D01*
X048225Y012384D01*
X048181Y012412D01*
X048134Y012437D01*
X048086Y012458D01*
X048036Y012476D01*
X047985Y012490D01*
X047933Y012500D01*
X052033Y012550D02*
X052033Y013050D01*
X052283Y013300D01*
X052033Y013550D01*
X052033Y014050D01*
X052283Y014300D01*
X052033Y014550D01*
X052033Y015050D01*
X052283Y015300D01*
X052033Y015550D01*
X052033Y016050D01*
X052283Y016300D01*
X052783Y016300D01*
X053033Y016050D01*
X053033Y015550D01*
X052783Y015300D01*
X053033Y015050D01*
X053033Y014550D01*
X052783Y014300D01*
X053033Y014050D01*
X053033Y013550D01*
X052783Y013300D01*
X053033Y013050D01*
X053033Y012550D01*
X052783Y012300D01*
X053033Y012050D01*
X053033Y011550D01*
X052783Y011300D01*
X053033Y011050D01*
X053033Y010550D01*
X052783Y010300D01*
X053033Y010050D01*
X053033Y009550D01*
X052783Y009300D01*
X053033Y009050D01*
X053033Y008550D01*
X052783Y008300D01*
X053033Y008050D01*
X053033Y007550D01*
X052783Y007300D01*
X053033Y007050D01*
X053033Y006550D01*
X052783Y006300D01*
X053033Y006050D01*
X053033Y005550D01*
X052783Y005300D01*
X053033Y005050D01*
X053033Y004550D01*
X052783Y004300D01*
X053033Y004050D01*
X053033Y003550D01*
X052783Y003300D01*
X053033Y003050D01*
X053033Y002550D01*
X052783Y002300D01*
X053033Y002050D01*
X053033Y001550D01*
X052783Y001300D01*
X052283Y001300D01*
X052033Y001550D01*
X052033Y002050D01*
X052283Y002300D01*
X052033Y002550D01*
X052033Y003050D01*
X052283Y003300D01*
X052033Y003550D01*
X052033Y004050D01*
X052283Y004300D01*
X052033Y004550D01*
X052033Y005050D01*
X052283Y005300D01*
X052033Y005550D01*
X052033Y006050D01*
X052283Y006300D01*
X052033Y006550D01*
X052033Y007050D01*
X052283Y007300D01*
X052033Y007550D01*
X052033Y008050D01*
X052283Y008300D01*
X052033Y008550D01*
X052033Y009050D01*
X052283Y009300D01*
X052033Y009550D01*
X052033Y010050D01*
X052283Y010300D01*
X052033Y010550D01*
X052033Y011050D01*
X052283Y011300D01*
X052033Y011550D01*
X052033Y012050D01*
X052283Y012300D01*
X052033Y012550D01*
X044625Y015245D02*
X044533Y015367D01*
X044352Y015367D01*
X044447Y015245D02*
X044523Y015361D01*
X044533Y015367D02*
X044714Y015367D01*
X042033Y015550D02*
X041783Y015300D01*
X042033Y015050D01*
X042033Y014550D01*
X041783Y014300D01*
X042033Y014050D01*
X042033Y013550D01*
X041783Y013300D01*
X042033Y013050D01*
X042033Y012550D01*
X041783Y012300D01*
X042033Y012050D01*
X042033Y011550D01*
X041783Y011300D01*
X042033Y011050D01*
X042033Y010550D01*
X041783Y010300D01*
X042033Y010050D01*
X042033Y009550D01*
X041783Y009300D01*
X042033Y009050D01*
X042033Y008550D01*
X041783Y008300D01*
X042033Y008050D01*
X042033Y007550D01*
X041783Y007300D01*
X042033Y007050D01*
X042033Y006550D01*
X041783Y006300D01*
X042033Y006050D01*
X042033Y005550D01*
X041783Y005300D01*
X042033Y005050D01*
X042033Y004550D01*
X041783Y004300D01*
X042033Y004050D01*
X042033Y003550D01*
X041783Y003300D01*
X042033Y003050D01*
X042033Y002550D01*
X041783Y002300D01*
X042033Y002050D01*
X042033Y001550D01*
X041783Y001300D01*
X041283Y001300D01*
X041033Y001550D01*
X041033Y002050D01*
X041283Y002300D01*
X041033Y002550D01*
X041033Y003050D01*
X041283Y003300D01*
X041033Y003550D01*
X041033Y004050D01*
X041283Y004300D01*
X041033Y004550D01*
X041033Y005050D01*
X041283Y005300D01*
X041033Y005550D01*
X041033Y006050D01*
X041283Y006300D01*
X041033Y006550D01*
X041033Y007050D01*
X041283Y007300D01*
X041033Y007550D01*
X041033Y008050D01*
X041283Y008300D01*
X041033Y008550D01*
X041033Y009050D01*
X041283Y009300D01*
X041033Y009550D01*
X041033Y010050D01*
X041283Y010300D01*
X041033Y010550D01*
X041033Y011050D01*
X041283Y011300D01*
X041033Y011550D01*
X041033Y012050D01*
X041283Y012300D01*
X041033Y012550D01*
X041033Y013050D01*
X041283Y013300D01*
X041033Y013550D01*
X041033Y014050D01*
X041283Y014300D01*
X041033Y014550D01*
X041033Y015050D01*
X041283Y015300D01*
X041033Y015550D01*
X041033Y016050D01*
X041283Y016300D01*
X041783Y016300D01*
X042033Y016050D01*
X042033Y015550D01*
X046133Y011100D02*
X046312Y011082D01*
X046492Y011068D01*
X046672Y011058D01*
X046853Y011052D01*
X047033Y011050D01*
X047213Y011052D01*
X047394Y011058D01*
X047574Y011068D01*
X047754Y011082D01*
X047933Y011100D01*
X049427Y004800D02*
X050640Y004800D01*
X051033Y004288D02*
X051033Y003312D01*
X050640Y002800D02*
X049427Y002800D01*
X049033Y003312D02*
X049033Y004300D01*
X049533Y003800D02*
X049535Y003844D01*
X049541Y003888D01*
X049551Y003931D01*
X049564Y003973D01*
X049581Y004014D01*
X049602Y004053D01*
X049626Y004090D01*
X049653Y004125D01*
X049683Y004157D01*
X049716Y004187D01*
X049752Y004213D01*
X049789Y004237D01*
X049829Y004256D01*
X049870Y004273D01*
X049913Y004285D01*
X049956Y004294D01*
X050000Y004299D01*
X050044Y004300D01*
X050088Y004297D01*
X050132Y004290D01*
X050175Y004279D01*
X050217Y004265D01*
X050257Y004247D01*
X050296Y004225D01*
X050332Y004201D01*
X050366Y004173D01*
X050398Y004142D01*
X050427Y004108D01*
X050453Y004072D01*
X050475Y004034D01*
X050494Y003994D01*
X050509Y003952D01*
X050521Y003910D01*
X050529Y003866D01*
X050533Y003822D01*
X050533Y003778D01*
X050529Y003734D01*
X050521Y003690D01*
X050509Y003648D01*
X050494Y003606D01*
X050475Y003566D01*
X050453Y003528D01*
X050427Y003492D01*
X050398Y003458D01*
X050366Y003427D01*
X050332Y003399D01*
X050296Y003375D01*
X050257Y003353D01*
X050217Y003335D01*
X050175Y003321D01*
X050132Y003310D01*
X050088Y003303D01*
X050044Y003300D01*
X050000Y003301D01*
X049956Y003306D01*
X049913Y003315D01*
X049870Y003327D01*
X049829Y003344D01*
X049789Y003363D01*
X049752Y003387D01*
X049716Y003413D01*
X049683Y003443D01*
X049653Y003475D01*
X049626Y003510D01*
X049602Y003547D01*
X049581Y003586D01*
X049564Y003627D01*
X049551Y003669D01*
X049541Y003712D01*
X049535Y003756D01*
X049533Y003800D01*
X046283Y002168D02*
X045783Y002168D01*
D16*
X044533Y003300D03*
X044533Y014050D03*
D17*
X045153Y009680D02*
X047773Y009680D01*
X047913Y009540D01*
X047913Y006920D01*
X045153Y006920D01*
X045153Y009680D01*
X047472Y009380D02*
X047474Y009403D01*
X047480Y009426D01*
X047489Y009447D01*
X047502Y009467D01*
X047518Y009484D01*
X047536Y009498D01*
X047556Y009509D01*
X047578Y009517D01*
X047601Y009521D01*
X047625Y009521D01*
X047648Y009517D01*
X047670Y009509D01*
X047690Y009498D01*
X047708Y009484D01*
X047724Y009467D01*
X047737Y009447D01*
X047746Y009426D01*
X047752Y009403D01*
X047754Y009380D01*
X047752Y009357D01*
X047746Y009334D01*
X047737Y009313D01*
X047724Y009293D01*
X047708Y009276D01*
X047690Y009262D01*
X047670Y009251D01*
X047648Y009243D01*
X047625Y009239D01*
X047601Y009239D01*
X047578Y009243D01*
X047556Y009251D01*
X047536Y009262D01*
X047518Y009276D01*
X047502Y009293D01*
X047489Y009313D01*
X047480Y009334D01*
X047474Y009357D01*
X047472Y009380D01*
M02*
