G75*
%MOIN*%
%OFA0B0*%
%FSLAX24Y24*%
%IPPOS*%
%LPD*%
%AMOC8*
5,1,8,0,0,1.08239X$1,22.5*
%
%ADD10OC8,0.0800*%
%ADD11C,0.0800*%
%ADD12C,0.0400*%
D10*
X046033Y002800D03*
X047033Y002800D03*
X048033Y002800D03*
X048033Y003800D03*
X047033Y003800D03*
X046033Y003800D03*
D11*
X041533Y001800D03*
X041533Y002800D03*
X041533Y003800D03*
X041533Y004800D03*
X041533Y005800D03*
X041533Y006800D03*
X041533Y007800D03*
X041533Y008800D03*
X041533Y009800D03*
X044033Y010300D03*
X041533Y010800D03*
X044033Y011300D03*
X046033Y011800D03*
X047033Y011800D03*
X048033Y011800D03*
X044033Y012300D03*
X041533Y011800D03*
X041533Y012800D03*
X041533Y013800D03*
X041533Y014800D03*
X041533Y015800D03*
X052533Y015800D03*
X052533Y014800D03*
X052533Y013800D03*
X052533Y012800D03*
X052533Y011800D03*
X052533Y010800D03*
X052533Y009800D03*
X052533Y008800D03*
X052533Y007800D03*
X052533Y006800D03*
X052533Y005800D03*
X052533Y004800D03*
X052533Y003800D03*
X052533Y002800D03*
X052533Y001800D03*
D12*
X051533Y002300D03*
X049233Y005000D03*
X046683Y006050D03*
X045033Y006300D03*
X044283Y006250D03*
X043533Y006300D03*
X044533Y005800D03*
X049033Y006800D03*
X048883Y008500D03*
X049533Y008800D03*
X050033Y009800D03*
X048433Y009950D03*
X048133Y010600D03*
X046733Y010700D03*
X046133Y010800D03*
X049533Y010800D03*
X051533Y012800D03*
X045033Y013300D03*
X043533Y014300D03*
M02*
