G75*
%MOIN*%
%OFA0B0*%
%FSLAX24Y24*%
%IPPOS*%
%LPD*%
%AMOC8*
5,1,8,0,0,1.08239X$1,22.5*
%
%ADD10R,0.0787X0.0256*%
%ADD11R,0.0394X0.0433*%
%ADD12OC8,0.0740*%
%ADD13C,0.0740*%
%ADD14R,0.0315X0.0315*%
%ADD15R,0.0600X0.0300*%
%ADD16R,0.0880X0.0480*%
%ADD17R,0.0866X0.1417*%
%ADD18R,0.0220X0.0500*%
%ADD19R,0.0500X0.0220*%
%ADD20C,0.0400*%
%ADD21C,0.0340*%
%ADD22C,0.0120*%
%ADD23C,0.0100*%
%ADD24C,0.0160*%
D10*
X049443Y012300D03*
X050624Y012300D03*
X050624Y014800D03*
X049443Y014800D03*
D11*
X044533Y014385D03*
X044533Y013715D03*
X044533Y005135D03*
X044533Y004465D03*
X044533Y003635D03*
X044533Y002965D03*
D12*
X046033Y002800D03*
X047033Y002800D03*
X048033Y002800D03*
X048033Y003800D03*
X047033Y003800D03*
X046033Y003800D03*
D13*
X041533Y003800D03*
X041533Y002800D03*
X041533Y001800D03*
X041533Y004800D03*
X041533Y005800D03*
X041533Y006800D03*
X041533Y007800D03*
X041533Y008800D03*
X041533Y009800D03*
X044033Y010300D03*
X041533Y010800D03*
X044033Y011300D03*
X046033Y011800D03*
X047033Y011800D03*
X048033Y011800D03*
X044033Y012300D03*
X041533Y011800D03*
X041533Y012800D03*
X041533Y013800D03*
X041533Y014800D03*
X041533Y015800D03*
X052533Y015800D03*
X052533Y014800D03*
X052533Y013800D03*
X052533Y012800D03*
X052533Y011800D03*
X052533Y010800D03*
X052533Y009800D03*
X052533Y008800D03*
X052533Y007800D03*
X052533Y006800D03*
X052533Y005800D03*
X052533Y004800D03*
X052533Y003800D03*
X052533Y002800D03*
X052533Y001800D03*
D14*
X044533Y015005D03*
X044533Y015595D03*
D15*
X049033Y004550D03*
X051033Y004550D03*
X051033Y003050D03*
X049033Y003050D03*
D16*
X048253Y013390D03*
X048253Y014300D03*
X048253Y015210D03*
D17*
X045813Y014300D03*
D18*
X045746Y009990D03*
X046061Y009990D03*
X046376Y009990D03*
X046691Y009990D03*
X047006Y009990D03*
X047321Y009990D03*
X047636Y009990D03*
X045431Y009990D03*
X045431Y006610D03*
X045746Y006610D03*
X046061Y006610D03*
X046376Y006610D03*
X046691Y006610D03*
X047006Y006610D03*
X047321Y006610D03*
X047636Y006610D03*
D19*
X048223Y007198D03*
X048223Y007513D03*
X048223Y007828D03*
X048223Y008143D03*
X048223Y008457D03*
X048223Y008772D03*
X048223Y009087D03*
X048223Y009402D03*
X044843Y009402D03*
X044843Y009087D03*
X044843Y008772D03*
X044843Y008457D03*
X044843Y008143D03*
X044843Y007828D03*
X044843Y007513D03*
X044843Y007198D03*
D20*
X039183Y000650D02*
X039183Y016820D01*
X055275Y016820D01*
X055275Y000650D01*
X039183Y000650D01*
X039183Y000699D02*
X055275Y000699D01*
X055275Y001097D02*
X039183Y001097D01*
X039183Y001496D02*
X040913Y001496D01*
X040948Y001409D02*
X041142Y001215D01*
X041396Y001110D01*
X041671Y001110D01*
X041924Y001215D01*
X042118Y001409D01*
X042131Y001440D01*
X042243Y001486D01*
X042743Y001986D01*
X042847Y002090D01*
X042903Y002226D01*
X042903Y003197D01*
X043187Y003480D01*
X043163Y003424D01*
X043163Y001726D01*
X043220Y001590D01*
X043324Y001486D01*
X043460Y001430D01*
X047607Y001430D01*
X047743Y001486D01*
X048243Y001986D01*
X048347Y002090D01*
X048381Y002171D01*
X048639Y002430D01*
X048663Y002430D01*
X048663Y002226D01*
X048720Y002090D01*
X048824Y001986D01*
X049220Y001590D01*
X049324Y001486D01*
X049460Y001430D01*
X051107Y001430D01*
X051243Y001486D01*
X051567Y001810D01*
X051631Y001810D01*
X051811Y001885D01*
X051881Y001955D01*
X051875Y001931D01*
X051863Y001844D01*
X051863Y001800D01*
X051863Y001756D01*
X051875Y001669D01*
X051898Y001584D01*
X051931Y001503D01*
X051975Y001427D01*
X052029Y001357D01*
X052091Y001295D01*
X052160Y001242D01*
X052236Y001198D01*
X052318Y001164D01*
X052402Y001141D01*
X052489Y001130D01*
X052533Y001130D01*
X052533Y001800D01*
X051863Y001800D01*
X052533Y001800D01*
X052533Y001800D01*
X052533Y001800D01*
X052533Y002470D01*
X052533Y002800D01*
X051863Y002800D01*
X051863Y002756D01*
X051875Y002669D01*
X051881Y002645D01*
X051811Y002715D01*
X051634Y002789D01*
X051653Y002836D01*
X051653Y003264D01*
X051605Y003381D01*
X051556Y003430D01*
X051940Y003430D01*
X051948Y003409D01*
X052072Y003286D01*
X052029Y003243D01*
X051975Y003173D01*
X051931Y003097D01*
X051898Y003016D01*
X051875Y002931D01*
X051863Y002844D01*
X051863Y002800D01*
X052533Y002800D01*
X052533Y002800D01*
X052533Y002800D01*
X052533Y001800D01*
X052533Y001800D01*
X052533Y001130D01*
X052577Y001130D01*
X052664Y001141D01*
X052749Y001164D01*
X052830Y001198D01*
X052906Y001242D01*
X052976Y001295D01*
X053038Y001357D01*
X053092Y001427D01*
X053136Y001503D01*
X053169Y001584D01*
X053192Y001669D01*
X053203Y001756D01*
X053203Y001800D01*
X053203Y001844D01*
X053192Y001931D01*
X053169Y002016D01*
X053136Y002097D01*
X053092Y002173D01*
X053038Y002243D01*
X052981Y002300D01*
X053038Y002357D01*
X053092Y002427D01*
X053136Y002503D01*
X053169Y002584D01*
X053192Y002669D01*
X053203Y002756D01*
X053203Y002800D01*
X053203Y002844D01*
X053192Y002931D01*
X053169Y003016D01*
X053136Y003097D01*
X053092Y003173D01*
X053038Y003243D01*
X052995Y003286D01*
X053118Y003409D01*
X053223Y003663D01*
X053223Y003937D01*
X053118Y004191D01*
X053009Y004300D01*
X053118Y004409D01*
X053223Y004663D01*
X053223Y004937D01*
X053118Y005191D01*
X053009Y005300D01*
X053118Y005409D01*
X053223Y005663D01*
X053223Y005937D01*
X053118Y006191D01*
X053009Y006300D01*
X053118Y006409D01*
X053223Y006663D01*
X053223Y006937D01*
X053118Y007191D01*
X053009Y007300D01*
X053118Y007409D01*
X053223Y007663D01*
X053223Y007937D01*
X053118Y008191D01*
X053009Y008300D01*
X053118Y008409D01*
X053223Y008663D01*
X053223Y008937D01*
X053118Y009191D01*
X053009Y009300D01*
X053118Y009409D01*
X053223Y009663D01*
X053223Y009937D01*
X053118Y010191D01*
X053009Y010300D01*
X053118Y010409D01*
X053223Y010663D01*
X053223Y010937D01*
X053118Y011191D01*
X053009Y011300D01*
X053118Y011409D01*
X053223Y011663D01*
X053223Y011937D01*
X053118Y012191D01*
X053009Y012300D01*
X053118Y012409D01*
X053223Y012663D01*
X053223Y012937D01*
X053118Y013191D01*
X053009Y013300D01*
X053118Y013409D01*
X053223Y013663D01*
X053223Y013937D01*
X053118Y014191D01*
X053009Y014300D01*
X053118Y014409D01*
X053223Y014663D01*
X053223Y014937D01*
X053118Y015191D01*
X053009Y015300D01*
X053118Y015409D01*
X053223Y015663D01*
X053223Y015937D01*
X053118Y016191D01*
X052924Y016385D01*
X052671Y016490D01*
X052396Y016490D01*
X052142Y016385D01*
X051948Y016191D01*
X051843Y015937D01*
X051843Y015663D01*
X051948Y015409D01*
X052058Y015300D01*
X051948Y015191D01*
X051843Y014937D01*
X051843Y014663D01*
X051948Y014409D01*
X052058Y014300D01*
X051948Y014191D01*
X051843Y013937D01*
X051843Y013663D01*
X051948Y013409D01*
X052058Y013300D01*
X051948Y013191D01*
X051843Y012937D01*
X051843Y012663D01*
X051852Y012642D01*
X051309Y012099D01*
X051318Y012142D01*
X051318Y012300D01*
X051318Y012458D01*
X051306Y012515D01*
X051283Y012570D01*
X051251Y012619D01*
X051209Y012661D01*
X051160Y012694D01*
X051105Y012716D01*
X051047Y012728D01*
X050624Y012728D01*
X050624Y012300D01*
X051318Y012300D01*
X050624Y012300D01*
X050624Y012300D01*
X050624Y012300D01*
X050624Y011872D01*
X051047Y011872D01*
X051105Y011884D01*
X051160Y011906D01*
X051183Y011922D01*
X051163Y011874D01*
X051163Y011453D01*
X050324Y010614D01*
X050324Y010614D01*
X050220Y010510D01*
X050163Y010374D01*
X050163Y010277D01*
X050131Y010290D01*
X049936Y010290D01*
X049903Y010277D01*
X049903Y010477D01*
X049949Y010522D01*
X050023Y010703D01*
X050023Y010897D01*
X049949Y011078D01*
X049811Y011215D01*
X049631Y011290D01*
X049436Y011290D01*
X049256Y011215D01*
X049118Y011078D01*
X049043Y010897D01*
X049043Y010703D01*
X049118Y010522D01*
X049163Y010477D01*
X049163Y010153D01*
X048923Y009913D01*
X048923Y010047D01*
X048849Y010228D01*
X048711Y010365D01*
X048588Y010416D01*
X048623Y010503D01*
X048623Y010697D01*
X048549Y010878D01*
X048411Y011015D01*
X048231Y011090D01*
X048036Y011090D01*
X047867Y011020D01*
X047777Y011020D01*
X047875Y011119D01*
X047896Y011110D01*
X048171Y011110D01*
X048424Y011215D01*
X048618Y011409D01*
X048723Y011663D01*
X048723Y011937D01*
X048618Y012191D01*
X048424Y012385D01*
X048171Y012490D01*
X047896Y012490D01*
X047642Y012385D01*
X047519Y012262D01*
X047476Y012305D01*
X047406Y012358D01*
X047330Y012402D01*
X047249Y012436D01*
X047164Y012459D01*
X047077Y012470D01*
X047033Y012470D01*
X046989Y012470D01*
X046902Y012459D01*
X046818Y012436D01*
X046736Y012402D01*
X046660Y012358D01*
X046591Y012305D01*
X046547Y012262D01*
X046424Y012385D01*
X046171Y012490D01*
X045896Y012490D01*
X045713Y012414D01*
X046152Y012853D01*
X046213Y013000D01*
X046213Y013271D01*
X046310Y013271D01*
X046428Y013320D01*
X046518Y013410D01*
X046566Y013528D01*
X046566Y013900D01*
X047533Y013900D01*
X047542Y013879D01*
X047590Y013831D01*
X047580Y013821D01*
X047547Y013772D01*
X047525Y013718D01*
X047513Y013660D01*
X047513Y013390D01*
X047513Y013120D01*
X047525Y013062D01*
X047547Y013008D01*
X047580Y012959D01*
X047622Y012917D01*
X047671Y012884D01*
X047726Y012862D01*
X047784Y012850D01*
X048253Y012850D01*
X048253Y013390D01*
X047513Y013390D01*
X048253Y013390D01*
X048253Y013390D01*
X048253Y013390D01*
X048253Y012850D01*
X048723Y012850D01*
X048781Y012862D01*
X048835Y012884D01*
X048885Y012917D01*
X048926Y012959D01*
X048959Y013008D01*
X048982Y013062D01*
X048993Y013120D01*
X048993Y013390D01*
X048993Y013660D01*
X048982Y013718D01*
X048959Y013772D01*
X048926Y013821D01*
X048917Y013831D01*
X048948Y013862D01*
X049073Y013737D01*
X049073Y012748D01*
X048985Y012748D01*
X048868Y012699D01*
X048778Y012609D01*
X048729Y012492D01*
X048729Y012108D01*
X048778Y011991D01*
X048868Y011901D01*
X048985Y011852D01*
X049900Y011852D01*
X050018Y011901D01*
X050049Y011932D01*
X050088Y011906D01*
X050143Y011884D01*
X050201Y011872D01*
X050624Y011872D01*
X050624Y012300D01*
X050624Y012300D01*
X050624Y012728D01*
X050201Y012728D01*
X050143Y012716D01*
X050088Y012694D01*
X050049Y012668D01*
X050018Y012699D01*
X049900Y012748D01*
X049813Y012748D01*
X049813Y013964D01*
X049756Y014100D01*
X049505Y014352D01*
X049900Y014352D01*
X050018Y014401D01*
X050049Y014432D01*
X050088Y014406D01*
X050143Y014384D01*
X050201Y014372D01*
X050624Y014372D01*
X051047Y014372D01*
X051105Y014384D01*
X051160Y014406D01*
X051209Y014439D01*
X051251Y014481D01*
X051283Y014530D01*
X051306Y014585D01*
X051318Y014642D01*
X051318Y014800D01*
X051318Y014958D01*
X051306Y015015D01*
X051283Y015070D01*
X051251Y015119D01*
X051209Y015161D01*
X051160Y015194D01*
X051105Y015216D01*
X051047Y015228D01*
X050624Y015228D01*
X050624Y014800D01*
X051318Y014800D01*
X050624Y014800D01*
X050624Y014800D01*
X050624Y014800D01*
X050624Y014372D01*
X050624Y014800D01*
X050624Y014800D01*
X050624Y015228D01*
X050201Y015228D01*
X050143Y015216D01*
X050088Y015194D01*
X050049Y015168D01*
X050018Y015199D01*
X049900Y015248D01*
X049013Y015248D01*
X049013Y015514D01*
X048965Y015631D01*
X048875Y015721D01*
X048757Y015770D01*
X048433Y015770D01*
X048433Y015880D01*
X048372Y016027D01*
X048260Y016139D01*
X047760Y016639D01*
X047613Y016700D01*
X043454Y016700D01*
X043307Y016639D01*
X043194Y016527D01*
X042148Y015480D01*
X042223Y015663D01*
X042223Y015937D01*
X042118Y016191D01*
X041924Y016385D01*
X041671Y016490D01*
X041396Y016490D01*
X041142Y016385D01*
X040948Y016191D01*
X040843Y015937D01*
X040843Y015663D01*
X040948Y015409D01*
X041058Y015300D01*
X040948Y015191D01*
X040843Y014937D01*
X040843Y014663D01*
X040948Y014409D01*
X041058Y014300D01*
X040948Y014191D01*
X040843Y013937D01*
X040843Y013663D01*
X040948Y013409D01*
X041072Y013286D01*
X041029Y013243D01*
X040975Y013173D01*
X040931Y013097D01*
X040898Y013016D01*
X040875Y012931D01*
X040863Y012844D01*
X040863Y012800D01*
X040863Y012756D01*
X040875Y012669D01*
X040898Y012584D01*
X040931Y012503D01*
X040975Y012427D01*
X041029Y012357D01*
X041072Y012314D01*
X040948Y012191D01*
X040843Y011937D01*
X040843Y011663D01*
X040948Y011409D01*
X041058Y011300D01*
X040948Y011191D01*
X040843Y010937D01*
X040843Y010663D01*
X040948Y010409D01*
X041058Y010300D01*
X040948Y010191D01*
X040843Y009937D01*
X040843Y009663D01*
X040948Y009409D01*
X041058Y009300D01*
X040948Y009191D01*
X040843Y008937D01*
X040843Y008663D01*
X040948Y008409D01*
X041058Y008300D01*
X040948Y008191D01*
X040843Y007937D01*
X040843Y007663D01*
X040948Y007409D01*
X041058Y007300D01*
X040948Y007191D01*
X040843Y006937D01*
X040843Y006663D01*
X040948Y006409D01*
X041058Y006300D01*
X040948Y006191D01*
X040843Y005937D01*
X040843Y005663D01*
X040948Y005409D01*
X041058Y005300D01*
X040948Y005191D01*
X040843Y004937D01*
X040843Y004663D01*
X040948Y004409D01*
X041058Y004300D01*
X040948Y004191D01*
X040843Y003937D01*
X040843Y003663D01*
X040948Y003409D01*
X041058Y003300D01*
X040948Y003191D01*
X040843Y002937D01*
X040843Y002663D01*
X040948Y002409D01*
X041058Y002300D01*
X040948Y002191D01*
X040843Y001937D01*
X040843Y001663D01*
X040948Y001409D01*
X040843Y001894D02*
X039183Y001894D01*
X039183Y002293D02*
X041050Y002293D01*
X040843Y002691D02*
X039183Y002691D01*
X039183Y003090D02*
X040906Y003090D01*
X040916Y003488D02*
X039183Y003488D01*
X039183Y003887D02*
X040843Y003887D01*
X041043Y004285D02*
X039183Y004285D01*
X039183Y004684D02*
X040843Y004684D01*
X040903Y005082D02*
X039183Y005082D01*
X039183Y005481D02*
X040919Y005481D01*
X040843Y005879D02*
X039183Y005879D01*
X039183Y006278D02*
X041035Y006278D01*
X040843Y006676D02*
X039183Y006676D01*
X039183Y007075D02*
X040900Y007075D01*
X040922Y007473D02*
X039183Y007473D01*
X039183Y007872D02*
X040843Y007872D01*
X041028Y008270D02*
X039183Y008270D01*
X039183Y008669D02*
X040843Y008669D01*
X040897Y009067D02*
X039183Y009067D01*
X039183Y009466D02*
X040925Y009466D01*
X040843Y009864D02*
X039183Y009864D01*
X039183Y010263D02*
X041020Y010263D01*
X040844Y010661D02*
X039183Y010661D01*
X039183Y011060D02*
X040894Y011060D01*
X040928Y011458D02*
X039183Y011458D01*
X039183Y011857D02*
X040843Y011857D01*
X041013Y012255D02*
X039183Y012255D01*
X039183Y012654D02*
X040879Y012654D01*
X040863Y012800D02*
X041533Y012800D01*
X041533Y012800D01*
X040863Y012800D01*
X041533Y012800D02*
X042203Y012800D01*
X042203Y012844D01*
X042192Y012931D01*
X042169Y013016D01*
X042136Y013097D01*
X042092Y013173D01*
X042038Y013243D01*
X041995Y013286D01*
X042024Y013315D01*
X044067Y013315D01*
X044155Y013228D01*
X044273Y013179D01*
X044553Y013179D01*
X044618Y013022D01*
X044756Y012885D01*
X044936Y012810D01*
X044978Y012810D01*
X044868Y012700D01*
X044609Y012700D01*
X044424Y012885D01*
X044171Y012990D01*
X043896Y012990D01*
X043642Y012885D01*
X043448Y012691D01*
X043343Y012437D01*
X043343Y012163D01*
X043448Y011909D01*
X043558Y011800D01*
X043453Y011696D01*
X043453Y011724D01*
X043397Y011860D01*
X043247Y012010D01*
X043143Y012114D01*
X043007Y012170D01*
X042127Y012170D01*
X042118Y012191D01*
X041995Y012314D01*
X042038Y012357D01*
X042092Y012427D01*
X042136Y012503D01*
X042169Y012584D01*
X042192Y012669D01*
X042203Y012756D01*
X042203Y012800D01*
X041533Y012800D01*
X041533Y012800D01*
X040913Y013052D02*
X039183Y013052D01*
X039183Y013451D02*
X040931Y013451D01*
X040843Y013849D02*
X039183Y013849D01*
X039183Y014248D02*
X041005Y014248D01*
X042009Y014300D02*
X042109Y014400D01*
X042113Y014400D01*
X042260Y014461D01*
X043699Y015900D01*
X044113Y015900D01*
X044110Y015895D01*
X044087Y015840D01*
X044076Y015782D01*
X044076Y015595D01*
X044076Y015408D01*
X044087Y015350D01*
X044097Y015326D01*
X044056Y015226D01*
X044056Y014784D01*
X044061Y014772D01*
X044016Y014665D01*
X044016Y014115D01*
X042150Y014115D01*
X042118Y014191D01*
X042009Y014300D01*
X042062Y014248D02*
X044016Y014248D01*
X045028Y014050D02*
X045050Y014104D01*
X045050Y014665D01*
X045006Y014772D01*
X045011Y014784D01*
X045011Y015226D01*
X044969Y015326D01*
X044979Y015350D01*
X044991Y015408D01*
X044991Y015595D01*
X044533Y015595D01*
X044076Y015595D01*
X044533Y015595D01*
X044533Y015595D01*
X044533Y015595D01*
X044991Y015595D01*
X044991Y015782D01*
X044979Y015840D01*
X044957Y015895D01*
X044953Y015900D01*
X047368Y015900D01*
X047589Y015678D01*
X047542Y015631D01*
X047493Y015514D01*
X047493Y014906D01*
X047542Y014789D01*
X047576Y014755D01*
X047542Y014721D01*
X047533Y014700D01*
X046566Y014700D01*
X046566Y015072D01*
X046518Y015190D01*
X046428Y015280D01*
X046310Y015329D01*
X045317Y015329D01*
X045199Y015280D01*
X045109Y015190D01*
X045060Y015072D01*
X045060Y013839D01*
X045050Y013849D01*
X045060Y013849D01*
X045050Y013849D02*
X045050Y013996D01*
X045028Y014050D01*
X045050Y014248D02*
X045060Y014248D01*
X046566Y013849D02*
X047572Y013849D01*
X047513Y013451D02*
X046534Y013451D01*
X046213Y013052D02*
X047529Y013052D01*
X048253Y013052D02*
X048253Y013052D01*
X048253Y013390D02*
X048253Y013390D01*
X048993Y013390D01*
X048253Y013390D01*
X048993Y013451D02*
X049073Y013451D01*
X049813Y013451D02*
X051931Y013451D01*
X051891Y013052D02*
X049813Y013052D01*
X049073Y013052D02*
X048977Y013052D01*
X048822Y012654D02*
X045953Y012654D01*
X047033Y012470D02*
X047033Y011800D01*
X047033Y011800D01*
X047033Y012470D01*
X047033Y012255D02*
X047033Y012255D01*
X047033Y011857D02*
X047033Y011857D01*
X048554Y012255D02*
X048729Y012255D01*
X048723Y011857D02*
X048975Y011857D01*
X049911Y011857D02*
X051163Y011857D01*
X051163Y011458D02*
X048639Y011458D01*
X048304Y011060D02*
X049110Y011060D01*
X049956Y011060D02*
X050770Y011060D01*
X050371Y010661D02*
X050006Y010661D01*
X049163Y010263D02*
X048814Y010263D01*
X048623Y010661D02*
X049061Y010661D01*
X047962Y011060D02*
X047816Y011060D01*
X047240Y010930D02*
X047170Y010860D01*
X047007Y010697D01*
X046951Y010561D01*
X046951Y010540D01*
X046913Y010540D01*
X046864Y010560D01*
X046564Y010560D01*
X046623Y010703D01*
X046623Y010897D01*
X046610Y010930D01*
X047240Y010930D01*
X046992Y010661D02*
X046606Y010661D01*
X043501Y011857D02*
X043398Y011857D01*
X043343Y012255D02*
X042054Y012255D01*
X042188Y012654D02*
X043433Y012654D01*
X044606Y013052D02*
X042154Y013052D01*
X042445Y014646D02*
X044016Y014646D01*
X044056Y015045D02*
X042844Y015045D01*
X043242Y015443D02*
X044076Y015443D01*
X044991Y015443D02*
X047493Y015443D01*
X047493Y015045D02*
X046566Y015045D01*
X045060Y015045D02*
X045011Y015045D01*
X045050Y014646D02*
X045060Y014646D01*
X044979Y015842D02*
X047426Y015842D01*
X048159Y016240D02*
X051998Y016240D01*
X051843Y015842D02*
X048433Y015842D01*
X049013Y015443D02*
X051934Y015443D01*
X051888Y015045D02*
X051294Y015045D01*
X050624Y015045D02*
X050624Y015045D01*
X050624Y014646D02*
X050624Y014646D01*
X051318Y014646D02*
X051850Y014646D01*
X053216Y014646D02*
X055275Y014646D01*
X055275Y015045D02*
X053179Y015045D01*
X053132Y015443D02*
X055275Y015443D01*
X055275Y015842D02*
X053223Y015842D01*
X053069Y016240D02*
X055275Y016240D01*
X055275Y016639D02*
X047761Y016639D01*
X044088Y015842D02*
X043641Y015842D01*
X042908Y016240D02*
X042069Y016240D01*
X040998Y016240D02*
X039183Y016240D01*
X039183Y015842D02*
X040843Y015842D01*
X040934Y015443D02*
X039183Y015443D01*
X039183Y015045D02*
X040888Y015045D01*
X040850Y014646D02*
X039183Y014646D01*
X042223Y015842D02*
X042509Y015842D01*
X043306Y016639D02*
X039183Y016639D01*
X048935Y013849D02*
X048961Y013849D01*
X049813Y013849D02*
X051843Y013849D01*
X052005Y014248D02*
X049609Y014248D01*
X053062Y014248D02*
X055275Y014248D01*
X055275Y013849D02*
X053223Y013849D01*
X053135Y013451D02*
X055275Y013451D01*
X055275Y013052D02*
X053176Y013052D01*
X053220Y012654D02*
X055275Y012654D01*
X055275Y012255D02*
X053054Y012255D01*
X053223Y011857D02*
X055275Y011857D01*
X055275Y011458D02*
X053139Y011458D01*
X053173Y011060D02*
X055275Y011060D01*
X055275Y010661D02*
X053223Y010661D01*
X053047Y010263D02*
X055275Y010263D01*
X055275Y009864D02*
X053223Y009864D01*
X053142Y009466D02*
X055275Y009466D01*
X055275Y009067D02*
X053170Y009067D01*
X053223Y008669D02*
X055275Y008669D01*
X055275Y008270D02*
X053039Y008270D01*
X053223Y007872D02*
X055275Y007872D01*
X055275Y007473D02*
X053145Y007473D01*
X053166Y007075D02*
X055275Y007075D01*
X055275Y006676D02*
X053223Y006676D01*
X053032Y006278D02*
X055275Y006278D01*
X055275Y005879D02*
X053223Y005879D01*
X053148Y005481D02*
X055275Y005481D01*
X055275Y005082D02*
X053163Y005082D01*
X053223Y004684D02*
X055275Y004684D01*
X055275Y004285D02*
X053024Y004285D01*
X053223Y003887D02*
X055275Y003887D01*
X055275Y003488D02*
X053151Y003488D01*
X053139Y003090D02*
X055275Y003090D01*
X055275Y002691D02*
X053195Y002691D01*
X053203Y002800D02*
X052533Y002800D01*
X053203Y002800D01*
X052533Y002800D02*
X052533Y002800D01*
X052533Y002691D02*
X052533Y002691D01*
X051872Y002691D02*
X051835Y002691D01*
X051120Y002580D02*
X051118Y002578D01*
X051043Y002397D01*
X051043Y002333D01*
X050880Y002170D01*
X049687Y002170D01*
X049403Y002453D01*
X049403Y002583D01*
X049515Y002629D01*
X049605Y002719D01*
X049653Y002836D01*
X049653Y003264D01*
X049605Y003381D01*
X049515Y003471D01*
X049397Y003520D01*
X048701Y003520D01*
X048703Y003522D01*
X048703Y003800D01*
X048703Y004078D01*
X048675Y004106D01*
X048704Y004100D01*
X049033Y004100D01*
X049033Y004550D01*
X048433Y004550D01*
X048433Y004680D01*
X046760Y004680D01*
X046624Y004736D01*
X046520Y004840D01*
X046116Y005244D01*
X046116Y004490D01*
X046319Y004490D01*
X046533Y004276D01*
X046748Y004490D01*
X047319Y004490D01*
X047547Y004262D01*
X047756Y004470D01*
X048033Y004470D01*
X048033Y003800D01*
X048033Y003800D01*
X048033Y004470D01*
X048311Y004470D01*
X048439Y004342D01*
X048433Y004370D01*
X048433Y004550D01*
X049033Y004550D01*
X049033Y004550D01*
X049033Y004550D01*
X049033Y004100D01*
X049363Y004100D01*
X049421Y004112D01*
X049475Y004134D01*
X049525Y004167D01*
X049566Y004209D01*
X049599Y004258D01*
X049622Y004312D01*
X049633Y004370D01*
X049633Y004550D01*
X049633Y004677D01*
X050790Y003520D01*
X050670Y003520D01*
X050552Y003471D01*
X050462Y003381D01*
X050413Y003264D01*
X050413Y002836D01*
X050462Y002719D01*
X050552Y002629D01*
X050670Y002580D01*
X051120Y002580D01*
X051003Y002293D02*
X049564Y002293D01*
X049577Y002691D02*
X050490Y002691D01*
X050413Y003090D02*
X049653Y003090D01*
X049474Y003488D02*
X050592Y003488D01*
X051653Y003090D02*
X051928Y003090D01*
X052533Y002293D02*
X052533Y002293D01*
X052988Y002293D02*
X055275Y002293D01*
X055275Y001894D02*
X053197Y001894D01*
X053203Y001800D02*
X052533Y001800D01*
X052533Y001800D01*
X053203Y001800D01*
X052533Y001894D02*
X052533Y001894D01*
X051870Y001894D02*
X051820Y001894D01*
X051935Y001496D02*
X051252Y001496D01*
X052533Y001496D02*
X052533Y001496D01*
X053131Y001496D02*
X055275Y001496D01*
X049315Y001496D02*
X047752Y001496D01*
X048151Y001894D02*
X048916Y001894D01*
X048824Y001986D02*
X048824Y001986D01*
X048663Y002293D02*
X048502Y002293D01*
X049220Y001590D02*
X049220Y001590D01*
X043315Y001496D02*
X042252Y001496D01*
X042651Y001894D02*
X043163Y001894D01*
X043163Y002293D02*
X042903Y002293D01*
X042903Y002691D02*
X043163Y002691D01*
X043163Y003090D02*
X042903Y003090D01*
X046524Y004285D02*
X046543Y004285D01*
X046751Y004684D02*
X046116Y004684D01*
X046116Y005082D02*
X046278Y005082D01*
X044533Y005135D02*
X044533Y005135D01*
X044533Y005651D01*
X044307Y005651D01*
X044253Y005641D01*
X044253Y005697D01*
X044317Y005760D01*
X044381Y005760D01*
X044561Y005835D01*
X044663Y005937D01*
X044663Y005824D01*
X044663Y005676D01*
X044674Y005651D01*
X044533Y005651D01*
X044533Y005135D01*
X044533Y005481D02*
X044533Y005481D01*
X044605Y005879D02*
X044663Y005879D01*
X048593Y006763D02*
X048687Y006670D01*
X049880Y006670D01*
X050663Y007453D01*
X050663Y007907D01*
X049956Y007199D01*
X049820Y007143D01*
X048793Y007143D01*
X048793Y007024D01*
X048745Y006906D01*
X048655Y006816D01*
X048593Y006791D01*
X048593Y006763D01*
X048681Y006676D02*
X049886Y006676D01*
X050285Y007075D02*
X048793Y007075D01*
X050230Y007473D02*
X050663Y007473D01*
X050663Y007872D02*
X050628Y007872D01*
X049633Y004550D02*
X049427Y004550D01*
X049427Y004550D01*
X049633Y004550D01*
X049610Y004285D02*
X050025Y004285D01*
X050424Y003887D02*
X048703Y003887D01*
X048703Y003800D02*
X048033Y003800D01*
X048033Y003800D01*
X048703Y003800D01*
X048033Y003887D02*
X048033Y003887D01*
X048033Y004285D02*
X048033Y004285D01*
X047571Y004285D02*
X047524Y004285D01*
X049033Y004285D02*
X049033Y004285D01*
X050624Y012255D02*
X050624Y012255D01*
X051318Y012255D02*
X051465Y012255D01*
X051216Y012654D02*
X051847Y012654D01*
X050624Y012654D02*
X050624Y012654D01*
D21*
X051533Y012800D03*
X049533Y010800D03*
X048133Y010600D03*
X046733Y010700D03*
X046133Y010800D03*
X048433Y009950D03*
X050033Y009800D03*
X049533Y008800D03*
X048883Y008500D03*
X049033Y006800D03*
X046683Y006050D03*
X045033Y006300D03*
X044283Y006250D03*
X043533Y006300D03*
X044533Y005800D03*
X049233Y005000D03*
X051533Y002300D03*
X045033Y013300D03*
X043533Y014300D03*
D22*
X046691Y006610D02*
X046691Y006057D01*
X046683Y006050D01*
D23*
X046333Y005950D02*
X046333Y006567D01*
X046376Y006610D01*
X046061Y006610D02*
X046061Y005822D01*
X046833Y005050D01*
X049183Y005050D01*
X049233Y005000D01*
X049533Y005300D02*
X046983Y005300D01*
X046333Y005950D01*
X047006Y005878D02*
X047333Y005550D01*
X050533Y005550D01*
X051783Y006800D01*
X052533Y006800D01*
X051783Y007200D02*
X051783Y007600D01*
X051983Y007800D01*
X052533Y007800D01*
X051983Y008800D02*
X051433Y008250D01*
X051433Y007200D01*
X050283Y006050D01*
X047883Y006050D01*
X047636Y006298D01*
X047636Y006610D01*
X047321Y006610D02*
X047321Y006013D01*
X047533Y005800D01*
X050383Y005800D01*
X051783Y007200D01*
X051033Y007300D02*
X051033Y008300D01*
X052533Y009800D01*
X051533Y009800D02*
X052533Y010800D01*
X051533Y010800D02*
X052533Y011800D01*
X051533Y011800D02*
X052533Y012800D01*
X051533Y011800D02*
X051533Y011300D01*
X050533Y010300D01*
X050533Y009300D01*
X049376Y008143D01*
X048223Y008143D01*
X048223Y008457D02*
X048841Y008457D01*
X048883Y008500D01*
X048251Y008800D02*
X048223Y008772D01*
X048251Y008800D02*
X049533Y008800D01*
X049333Y009100D02*
X048236Y009100D01*
X048223Y009087D01*
X048226Y009400D02*
X048223Y009402D01*
X048226Y009400D02*
X048933Y009400D01*
X049533Y010000D01*
X049533Y010800D01*
X048133Y010600D02*
X048083Y010650D01*
X047483Y010650D01*
X047321Y010487D01*
X047321Y009990D01*
X047636Y009990D02*
X047676Y009950D01*
X048433Y009950D01*
X049333Y009100D02*
X050033Y009800D01*
X051033Y009800D02*
X051533Y010300D01*
X051533Y010800D01*
X051533Y009800D02*
X051533Y009300D01*
X049746Y007513D01*
X048223Y007513D01*
X048223Y007828D02*
X049561Y007828D01*
X051033Y009300D01*
X051033Y009800D01*
X051983Y008800D02*
X052533Y008800D01*
X051033Y007300D02*
X050033Y006300D01*
X048533Y006300D01*
X048223Y006610D01*
X048223Y007198D01*
X047006Y006610D02*
X047006Y005878D01*
X045333Y005450D02*
X045333Y004700D01*
X045133Y004500D01*
X044568Y004500D01*
X044533Y004465D01*
X044533Y003635D01*
X044518Y003650D01*
X043833Y003650D01*
X043533Y003350D01*
X043533Y001800D01*
X047533Y001800D01*
X048033Y002300D01*
X048033Y002800D01*
X048783Y002800D01*
X049033Y003050D01*
X049033Y002300D01*
X049533Y001800D01*
X051033Y001800D01*
X051533Y002300D01*
X051033Y003800D02*
X049533Y005300D01*
X046033Y003800D02*
X045746Y004087D01*
X045321Y004087D01*
X045033Y003800D01*
X045033Y003150D01*
X044783Y002900D01*
X044599Y002900D01*
X044533Y002965D01*
X043883Y004700D02*
X042533Y003350D01*
X042533Y002300D01*
X042033Y001800D01*
X041533Y001800D01*
X041533Y002800D02*
X043533Y004800D01*
X043533Y006300D01*
X043883Y005850D02*
X044283Y006250D01*
X043883Y005850D02*
X043883Y004700D01*
X042683Y004800D02*
X041683Y003800D01*
X041533Y003800D01*
X041533Y004800D02*
X042083Y004800D01*
X042433Y005150D01*
X042433Y006300D01*
X043333Y007200D01*
X044841Y007200D01*
X044843Y007198D01*
X044831Y007500D02*
X043133Y007500D01*
X042233Y006600D01*
X042233Y006100D01*
X041933Y005800D01*
X041533Y005800D01*
X042683Y005950D02*
X042683Y004800D01*
X045033Y005750D02*
X045333Y005450D01*
X045033Y005750D02*
X045033Y006300D01*
X045431Y006610D02*
X045241Y006800D01*
X043533Y006800D01*
X042683Y005950D01*
X042033Y006800D02*
X041533Y006800D01*
X042033Y006800D02*
X043083Y007850D01*
X044821Y007850D01*
X044843Y007828D01*
X044843Y008143D02*
X044836Y008150D01*
X042433Y008150D01*
X042083Y007800D01*
X041533Y007800D01*
X042633Y008800D02*
X042983Y008450D01*
X044836Y008450D01*
X044843Y008457D01*
X044843Y008772D02*
X044816Y008800D01*
X043083Y008800D01*
X042533Y009350D01*
X042533Y009700D01*
X042433Y009800D01*
X041533Y009800D01*
X042833Y009450D02*
X042833Y010700D01*
X042733Y010800D01*
X041533Y010800D01*
X042933Y011800D02*
X043083Y011650D01*
X043083Y009600D01*
X043283Y009400D01*
X044841Y009400D01*
X044843Y009402D01*
X044831Y009100D02*
X043183Y009100D01*
X042833Y009450D01*
X042633Y008800D02*
X041533Y008800D01*
X044831Y009100D02*
X044843Y009087D01*
X046061Y009300D02*
X046533Y009300D01*
X046691Y009457D01*
X046691Y009990D01*
X047006Y009990D02*
X047006Y010672D01*
X046733Y010700D01*
X046633Y010800D01*
X046533Y010800D01*
X046376Y010643D01*
X046376Y009990D01*
X046133Y010062D02*
X046061Y009990D01*
X046061Y009300D01*
X046061Y007778D01*
X045733Y007450D01*
X045733Y006623D01*
X045746Y006610D01*
X045746Y004087D01*
X051033Y003800D02*
X052533Y003800D01*
X044843Y007513D02*
X044831Y007500D01*
X045431Y009990D02*
X045431Y011198D01*
X046033Y011800D01*
X046033Y011300D02*
X047533Y011300D01*
X048033Y011800D01*
X049443Y012300D02*
X049443Y013891D01*
X049033Y014300D01*
X048253Y014300D01*
X048663Y014800D02*
X048098Y015365D01*
X048663Y014800D02*
X049443Y014800D01*
X044533Y015005D02*
X044533Y014385D01*
X042933Y011800D02*
X041533Y011800D01*
X045746Y011013D02*
X046033Y011300D01*
X045746Y011013D02*
X045746Y009990D01*
X046133Y010062D02*
X046133Y010800D01*
D24*
X045033Y012300D02*
X044033Y012300D01*
X045033Y012300D02*
X045813Y013080D01*
X045813Y014300D01*
X048253Y014300D01*
X048253Y015210D02*
X048098Y015365D01*
X048033Y015430D01*
X048033Y015800D01*
X047533Y016300D01*
X043533Y016300D01*
X042033Y014800D01*
X041533Y014800D01*
X041533Y013800D02*
X041618Y013715D01*
X044533Y013715D01*
X044618Y013715D01*
X045033Y013300D01*
M02*
