G75*
%MOIN*%
%OFA0B0*%
%FSLAX24Y24*%
%IPPOS*%
%LPD*%
%AMOC8*
5,1,8,0,0,1.08239X$1,22.5*
%
%ADD10OC8,0.0740*%
%ADD11C,0.0740*%
%ADD12C,0.0400*%
%ADD13C,0.0340*%
%ADD14C,0.0100*%
%ADD15C,0.0160*%
D10*
X046033Y002800D03*
X047033Y002800D03*
X048033Y002800D03*
X048033Y003800D03*
X047033Y003800D03*
X046033Y003800D03*
D11*
X041533Y003800D03*
X041533Y002800D03*
X041533Y001800D03*
X041533Y004800D03*
X041533Y005800D03*
X041533Y006800D03*
X041533Y007800D03*
X041533Y008800D03*
X041533Y009800D03*
X044033Y010300D03*
X041533Y010800D03*
X044033Y011300D03*
X046033Y011800D03*
X047033Y011800D03*
X048033Y011800D03*
X044033Y012300D03*
X041533Y011800D03*
X041533Y012800D03*
X041533Y013800D03*
X041533Y014800D03*
X041533Y015800D03*
X052533Y015800D03*
X052533Y014800D03*
X052533Y013800D03*
X052533Y012800D03*
X052533Y011800D03*
X052533Y010800D03*
X052533Y009800D03*
X052533Y008800D03*
X052533Y007800D03*
X052533Y006800D03*
X052533Y005800D03*
X052533Y004800D03*
X052533Y003800D03*
X052533Y002800D03*
X052533Y001800D03*
D12*
X039183Y000650D02*
X039183Y016820D01*
X055275Y016820D01*
X055275Y000650D01*
X039183Y000650D01*
X039183Y000699D02*
X055275Y000699D01*
X055275Y001097D02*
X039183Y001097D01*
X039183Y001496D02*
X040913Y001496D01*
X040948Y001409D02*
X041142Y001215D01*
X041396Y001110D01*
X041671Y001110D01*
X041924Y001215D01*
X042118Y001409D01*
X042223Y001663D01*
X042223Y001937D01*
X042118Y002191D01*
X042009Y002300D01*
X042118Y002409D01*
X042163Y002518D01*
X042163Y002226D01*
X042220Y002090D01*
X042324Y001986D01*
X042824Y001486D01*
X042960Y001430D01*
X046607Y001430D01*
X046743Y001486D01*
X046847Y001590D01*
X046847Y001590D01*
X047347Y002090D01*
X047381Y002171D01*
X047533Y002324D01*
X047748Y002110D01*
X048319Y002110D01*
X048723Y002514D01*
X048723Y003086D01*
X048495Y003314D01*
X048703Y003522D01*
X048703Y003800D01*
X048703Y004078D01*
X048311Y004470D01*
X048033Y004470D01*
X047756Y004470D01*
X047547Y004262D01*
X047319Y004490D01*
X046967Y004490D01*
X046697Y004760D01*
X046593Y004864D01*
X046457Y004920D01*
X043487Y004920D01*
X042322Y006085D01*
X042218Y006189D01*
X042082Y006245D01*
X042064Y006245D01*
X042009Y006300D01*
X042118Y006409D01*
X042223Y006663D01*
X042223Y006937D01*
X042118Y007191D01*
X042009Y007300D01*
X042118Y007409D01*
X042223Y007663D01*
X042223Y007937D01*
X042118Y008191D01*
X042009Y008300D01*
X042118Y008409D01*
X042223Y008663D01*
X042223Y008937D01*
X042118Y009191D01*
X042009Y009300D01*
X042118Y009409D01*
X042223Y009663D01*
X042223Y009937D01*
X042118Y010191D01*
X042009Y010300D01*
X042118Y010409D01*
X042223Y010663D01*
X042223Y010937D01*
X042118Y011191D01*
X042009Y011300D01*
X042118Y011409D01*
X042223Y011663D01*
X042223Y011937D01*
X042118Y012191D01*
X041995Y012314D01*
X042038Y012357D01*
X042092Y012427D01*
X042136Y012503D01*
X042169Y012584D01*
X042192Y012669D01*
X042203Y012756D01*
X042203Y012800D01*
X042203Y012844D01*
X042192Y012931D01*
X042169Y013016D01*
X042136Y013097D01*
X042092Y013173D01*
X042038Y013243D01*
X041995Y013286D01*
X042118Y013409D01*
X042223Y013663D01*
X042223Y013937D01*
X042118Y014191D01*
X042009Y014300D01*
X042118Y014409D01*
X042223Y014663D01*
X042223Y014937D01*
X042118Y015191D01*
X042009Y015300D01*
X042109Y015400D01*
X042368Y015400D01*
X042633Y015134D01*
X042633Y010720D01*
X042694Y010573D01*
X042807Y010461D01*
X043307Y009961D01*
X043454Y009900D01*
X043458Y009900D01*
X043642Y009715D01*
X043896Y009610D01*
X044171Y009610D01*
X044424Y009715D01*
X044618Y009909D01*
X044723Y010163D01*
X044723Y010437D01*
X044618Y010691D01*
X044509Y010800D01*
X044510Y010800D01*
X044720Y010590D01*
X044824Y010486D01*
X044960Y010430D01*
X045810Y010430D01*
X045856Y010385D01*
X046036Y010310D01*
X046231Y010310D01*
X046411Y010385D01*
X046549Y010522D01*
X046623Y010703D01*
X046623Y010897D01*
X046549Y011078D01*
X046415Y011211D01*
X046424Y011215D01*
X046547Y011338D01*
X046591Y011295D01*
X046660Y011242D01*
X046736Y011198D01*
X046818Y011164D01*
X046902Y011141D01*
X046989Y011130D01*
X047033Y011130D01*
X047033Y011800D01*
X047033Y012470D01*
X046989Y012470D01*
X046902Y012459D01*
X046818Y012436D01*
X046736Y012402D01*
X046660Y012358D01*
X046591Y012305D01*
X046547Y012262D01*
X046424Y012385D01*
X046171Y012490D01*
X045896Y012490D01*
X045642Y012385D01*
X045448Y012191D01*
X045433Y012155D01*
X045433Y013007D01*
X045449Y013022D01*
X045523Y013203D01*
X045523Y013397D01*
X045449Y013578D01*
X045311Y013715D01*
X045131Y013790D01*
X044936Y013790D01*
X044756Y013715D01*
X044618Y013578D01*
X044543Y013397D01*
X044543Y013203D01*
X044618Y013022D01*
X044633Y013007D01*
X044633Y012655D01*
X044618Y012691D01*
X044424Y012885D01*
X044171Y012990D01*
X043896Y012990D01*
X043642Y012885D01*
X043448Y012691D01*
X043433Y012655D01*
X043433Y015380D01*
X043372Y015527D01*
X042872Y016027D01*
X042760Y016139D01*
X042613Y016200D01*
X042109Y016200D01*
X041924Y016385D01*
X041671Y016490D01*
X041396Y016490D01*
X041142Y016385D01*
X040948Y016191D01*
X040843Y015937D01*
X040843Y015663D01*
X040948Y015409D01*
X041058Y015300D01*
X040948Y015191D01*
X040843Y014937D01*
X040843Y014663D01*
X040948Y014409D01*
X041058Y014300D01*
X040948Y014191D01*
X040843Y013937D01*
X040843Y013663D01*
X040948Y013409D01*
X041072Y013286D01*
X041029Y013243D01*
X040975Y013173D01*
X040931Y013097D01*
X040898Y013016D01*
X040875Y012931D01*
X040863Y012844D01*
X040863Y012800D01*
X040863Y012756D01*
X040875Y012669D01*
X040898Y012584D01*
X040931Y012503D01*
X040975Y012427D01*
X041029Y012357D01*
X041072Y012314D01*
X040948Y012191D01*
X040843Y011937D01*
X040843Y011663D01*
X040948Y011409D01*
X041058Y011300D01*
X040948Y011191D01*
X040843Y010937D01*
X040843Y010663D01*
X040948Y010409D01*
X041058Y010300D01*
X040948Y010191D01*
X040843Y009937D01*
X040843Y009663D01*
X040948Y009409D01*
X041058Y009300D01*
X040948Y009191D01*
X040843Y008937D01*
X040843Y008663D01*
X040948Y008409D01*
X041058Y008300D01*
X040948Y008191D01*
X040843Y007937D01*
X040843Y007663D01*
X040948Y007409D01*
X041058Y007300D01*
X040948Y007191D01*
X040843Y006937D01*
X040843Y006663D01*
X040948Y006409D01*
X041058Y006300D01*
X040948Y006191D01*
X040843Y005937D01*
X040843Y005663D01*
X040948Y005409D01*
X041058Y005300D01*
X040948Y005191D01*
X040843Y004937D01*
X040843Y004663D01*
X040948Y004409D01*
X041058Y004300D01*
X040948Y004191D01*
X040843Y003937D01*
X040843Y003663D01*
X040948Y003409D01*
X041058Y003300D01*
X040948Y003191D01*
X040843Y002937D01*
X040843Y002663D01*
X040948Y002409D01*
X041058Y002300D01*
X040948Y002191D01*
X040843Y001937D01*
X040843Y001663D01*
X040948Y001409D01*
X040843Y001894D02*
X039183Y001894D01*
X039183Y002293D02*
X041050Y002293D01*
X042017Y002293D02*
X042163Y002293D01*
X042223Y001894D02*
X042416Y001894D01*
X042154Y001496D02*
X042815Y001496D01*
X040843Y002691D02*
X039183Y002691D01*
X039183Y003090D02*
X040906Y003090D01*
X040916Y003488D02*
X039183Y003488D01*
X039183Y003887D02*
X040843Y003887D01*
X041043Y004285D02*
X039183Y004285D01*
X039183Y004684D02*
X040843Y004684D01*
X040903Y005082D02*
X039183Y005082D01*
X039183Y005481D02*
X040919Y005481D01*
X040843Y005879D02*
X039183Y005879D01*
X039183Y006278D02*
X041035Y006278D01*
X042032Y006278D02*
X043043Y006278D01*
X043043Y006203D02*
X043118Y006022D01*
X043256Y005885D01*
X043436Y005810D01*
X043631Y005810D01*
X043811Y005885D01*
X043883Y005957D01*
X044006Y005835D01*
X044186Y005760D01*
X044381Y005760D01*
X044561Y005835D01*
X044683Y005957D01*
X044756Y005885D01*
X044936Y005810D01*
X045131Y005810D01*
X045311Y005885D01*
X045449Y006022D01*
X045523Y006203D01*
X045523Y006267D01*
X047387Y008130D01*
X048560Y008130D01*
X048606Y008085D01*
X048786Y008010D01*
X048981Y008010D01*
X049161Y008085D01*
X049299Y008222D01*
X049350Y008346D01*
X049436Y008310D01*
X049631Y008310D01*
X049811Y008385D01*
X049949Y008522D01*
X050023Y008703D01*
X050023Y008767D01*
X050847Y009590D01*
X050903Y009726D01*
X050903Y013147D01*
X051187Y013430D01*
X051940Y013430D01*
X051948Y013409D01*
X052058Y013300D01*
X051948Y013191D01*
X051843Y012937D01*
X051843Y012663D01*
X051948Y012409D01*
X052058Y012300D01*
X051948Y012191D01*
X051843Y011937D01*
X051843Y011663D01*
X051948Y011409D01*
X052058Y011300D01*
X051948Y011191D01*
X051843Y010937D01*
X051843Y010663D01*
X051948Y010409D01*
X052058Y010300D01*
X051948Y010191D01*
X051843Y009937D01*
X051843Y009663D01*
X051948Y009409D01*
X052058Y009300D01*
X051948Y009191D01*
X051843Y008937D01*
X051843Y008663D01*
X051948Y008409D01*
X052058Y008300D01*
X051948Y008191D01*
X051843Y007937D01*
X051843Y007663D01*
X051948Y007409D01*
X052058Y007300D01*
X051948Y007191D01*
X051843Y006937D01*
X051843Y006663D01*
X051948Y006409D01*
X052058Y006300D01*
X051948Y006191D01*
X051898Y006070D01*
X051660Y006070D01*
X051524Y006014D01*
X051420Y005910D01*
X050880Y005370D01*
X049556Y005370D01*
X049511Y005415D01*
X049331Y005490D01*
X049136Y005490D01*
X048956Y005415D01*
X048818Y005278D01*
X048743Y005097D01*
X048743Y004903D01*
X048818Y004722D01*
X048956Y004585D01*
X049136Y004510D01*
X049331Y004510D01*
X049511Y004585D01*
X049556Y004630D01*
X051107Y004630D01*
X051243Y004686D01*
X051887Y005330D01*
X052028Y005330D01*
X052058Y005300D01*
X051948Y005191D01*
X051936Y005160D01*
X051824Y005114D01*
X051720Y005010D01*
X051220Y004510D01*
X051163Y004374D01*
X051163Y002623D01*
X051118Y002578D01*
X051043Y002397D01*
X051043Y002203D01*
X051118Y002022D01*
X051256Y001885D01*
X051436Y001810D01*
X051631Y001810D01*
X051811Y001885D01*
X051881Y001955D01*
X051875Y001931D01*
X051863Y001844D01*
X051863Y001800D01*
X051863Y001756D01*
X051875Y001669D01*
X051898Y001584D01*
X051931Y001503D01*
X051975Y001427D01*
X052029Y001357D01*
X052091Y001295D01*
X052160Y001242D01*
X052236Y001198D01*
X052318Y001164D01*
X052402Y001141D01*
X052489Y001130D01*
X052533Y001130D01*
X052533Y001800D01*
X051863Y001800D01*
X052533Y001800D01*
X052533Y001800D01*
X052533Y001800D01*
X052533Y002470D01*
X052533Y002800D01*
X052533Y002800D01*
X052533Y001800D01*
X052533Y001800D01*
X052533Y001130D01*
X052577Y001130D01*
X052664Y001141D01*
X052749Y001164D01*
X052830Y001198D01*
X052906Y001242D01*
X052976Y001295D01*
X053038Y001357D01*
X053092Y001427D01*
X053136Y001503D01*
X053169Y001584D01*
X053192Y001669D01*
X053203Y001756D01*
X053203Y001800D01*
X053203Y001844D01*
X053192Y001931D01*
X053169Y002016D01*
X053136Y002097D01*
X053092Y002173D01*
X053038Y002243D01*
X052981Y002300D01*
X053038Y002357D01*
X053092Y002427D01*
X053136Y002503D01*
X053169Y002584D01*
X053192Y002669D01*
X053203Y002756D01*
X053203Y002800D01*
X053203Y002844D01*
X053192Y002931D01*
X053169Y003016D01*
X053136Y003097D01*
X053092Y003173D01*
X053038Y003243D01*
X052995Y003286D01*
X053118Y003409D01*
X053223Y003663D01*
X053223Y003937D01*
X053118Y004191D01*
X053009Y004300D01*
X053118Y004409D01*
X053223Y004663D01*
X053223Y004937D01*
X053118Y005191D01*
X053009Y005300D01*
X053118Y005409D01*
X053223Y005663D01*
X053223Y005937D01*
X053118Y006191D01*
X053009Y006300D01*
X053118Y006409D01*
X053223Y006663D01*
X053223Y006937D01*
X053118Y007191D01*
X053009Y007300D01*
X053118Y007409D01*
X053223Y007663D01*
X053223Y007937D01*
X053118Y008191D01*
X053009Y008300D01*
X053118Y008409D01*
X053223Y008663D01*
X053223Y008937D01*
X053118Y009191D01*
X053009Y009300D01*
X053118Y009409D01*
X053223Y009663D01*
X053223Y009937D01*
X053118Y010191D01*
X053009Y010300D01*
X053118Y010409D01*
X053223Y010663D01*
X053223Y010937D01*
X053118Y011191D01*
X053009Y011300D01*
X053118Y011409D01*
X053223Y011663D01*
X053223Y011937D01*
X053118Y012191D01*
X053009Y012300D01*
X053118Y012409D01*
X053223Y012663D01*
X053223Y012937D01*
X053118Y013191D01*
X053009Y013300D01*
X053118Y013409D01*
X053223Y013663D01*
X053223Y013937D01*
X053118Y014191D01*
X053009Y014300D01*
X053118Y014409D01*
X053223Y014663D01*
X053223Y014937D01*
X053118Y015191D01*
X053009Y015300D01*
X053118Y015409D01*
X053223Y015663D01*
X053223Y015937D01*
X053118Y016191D01*
X052924Y016385D01*
X052671Y016490D01*
X052396Y016490D01*
X052142Y016385D01*
X051948Y016191D01*
X051940Y016170D01*
X049960Y016170D01*
X049824Y016114D01*
X049324Y015614D01*
X049220Y015510D01*
X049163Y015374D01*
X049163Y011123D01*
X049118Y011078D01*
X049043Y010897D01*
X049043Y010703D01*
X049118Y010522D01*
X049256Y010385D01*
X049436Y010310D01*
X049631Y010310D01*
X049663Y010323D01*
X049663Y010123D01*
X049618Y010078D01*
X049543Y009897D01*
X049543Y009703D01*
X049618Y009522D01*
X049675Y009465D01*
X049500Y009290D01*
X049436Y009290D01*
X049256Y009215D01*
X049118Y009078D01*
X049067Y008954D01*
X048981Y008990D01*
X048786Y008990D01*
X048606Y008915D01*
X048560Y008870D01*
X047427Y008870D01*
X048123Y009567D01*
X048156Y009535D01*
X048336Y009460D01*
X048531Y009460D01*
X048711Y009535D01*
X048849Y009672D01*
X048923Y009853D01*
X048923Y010047D01*
X048849Y010228D01*
X048711Y010365D01*
X048588Y010416D01*
X048623Y010503D01*
X048623Y010697D01*
X048549Y010878D01*
X048411Y011015D01*
X048231Y011090D01*
X048036Y011090D01*
X047856Y011015D01*
X047810Y010970D01*
X047760Y010970D01*
X047624Y010914D01*
X043500Y006790D01*
X043436Y006790D01*
X043256Y006715D01*
X043118Y006578D01*
X043043Y006397D01*
X043043Y006203D01*
X043269Y005879D02*
X042528Y005879D01*
X042926Y005481D02*
X049113Y005481D01*
X049354Y005481D02*
X050991Y005481D01*
X051389Y005879D02*
X045297Y005879D01*
X044769Y005879D02*
X044605Y005879D01*
X043961Y005879D02*
X043797Y005879D01*
X045534Y006278D02*
X052035Y006278D01*
X051843Y006676D02*
X045933Y006676D01*
X046331Y007075D02*
X051900Y007075D01*
X051922Y007473D02*
X046730Y007473D01*
X047128Y007872D02*
X051843Y007872D01*
X052028Y008270D02*
X049318Y008270D01*
X050009Y008669D02*
X051843Y008669D01*
X051897Y009067D02*
X050324Y009067D01*
X050722Y009466D02*
X051925Y009466D01*
X053142Y009466D02*
X055275Y009466D01*
X055275Y009067D02*
X053170Y009067D01*
X053223Y008669D02*
X055275Y008669D01*
X055275Y008270D02*
X053039Y008270D01*
X053223Y007872D02*
X055275Y007872D01*
X055275Y007473D02*
X053145Y007473D01*
X053166Y007075D02*
X055275Y007075D01*
X055275Y006676D02*
X053223Y006676D01*
X053032Y006278D02*
X055275Y006278D01*
X055275Y005879D02*
X053223Y005879D01*
X053148Y005481D02*
X055275Y005481D01*
X055275Y005082D02*
X053163Y005082D01*
X053223Y004684D02*
X055275Y004684D01*
X055275Y004285D02*
X053024Y004285D01*
X053223Y003887D02*
X055275Y003887D01*
X055275Y003488D02*
X053151Y003488D01*
X053139Y003090D02*
X055275Y003090D01*
X055275Y002691D02*
X053195Y002691D01*
X053203Y002800D02*
X052533Y002800D01*
X053203Y002800D01*
X052533Y002800D02*
X052533Y002800D01*
X052533Y002691D02*
X052533Y002691D01*
X052533Y002293D02*
X052533Y002293D01*
X052988Y002293D02*
X055275Y002293D01*
X055275Y001894D02*
X053197Y001894D01*
X053203Y001800D02*
X052533Y001800D01*
X052533Y001800D01*
X053203Y001800D01*
X052533Y001894D02*
X052533Y001894D01*
X051870Y001894D02*
X051820Y001894D01*
X051246Y001894D02*
X047151Y001894D01*
X046752Y001496D02*
X051935Y001496D01*
X052533Y001496D02*
X052533Y001496D01*
X053131Y001496D02*
X055275Y001496D01*
X051163Y002691D02*
X048723Y002691D01*
X048720Y003090D02*
X051163Y003090D01*
X051163Y003488D02*
X048669Y003488D01*
X048703Y003800D02*
X048033Y003800D01*
X048033Y004470D01*
X048033Y003800D01*
X048033Y003800D01*
X048703Y003800D01*
X048703Y003887D02*
X051163Y003887D01*
X051163Y004285D02*
X048496Y004285D01*
X048033Y004285D02*
X048033Y004285D01*
X047571Y004285D02*
X047524Y004285D01*
X048033Y003887D02*
X048033Y003887D01*
X048033Y003800D02*
X048033Y003800D01*
X048857Y004684D02*
X046773Y004684D01*
X048743Y005082D02*
X043325Y005082D01*
X043216Y006676D02*
X042223Y006676D01*
X042166Y007075D02*
X043785Y007075D01*
X044183Y007473D02*
X042145Y007473D01*
X042223Y007872D02*
X044582Y007872D01*
X044980Y008270D02*
X042039Y008270D01*
X041028Y008270D02*
X039183Y008270D01*
X039183Y007872D02*
X040843Y007872D01*
X040922Y007473D02*
X039183Y007473D01*
X039183Y007075D02*
X040900Y007075D01*
X040843Y006676D02*
X039183Y006676D01*
X039183Y008669D02*
X040843Y008669D01*
X040897Y009067D02*
X039183Y009067D01*
X039183Y009466D02*
X040925Y009466D01*
X040843Y009864D02*
X039183Y009864D01*
X039183Y010263D02*
X041020Y010263D01*
X042047Y010263D02*
X043005Y010263D01*
X042658Y010661D02*
X042223Y010661D01*
X042173Y011060D02*
X042633Y011060D01*
X042633Y011458D02*
X042139Y011458D01*
X042223Y011857D02*
X042633Y011857D01*
X042633Y012255D02*
X042054Y012255D01*
X041013Y012255D02*
X039183Y012255D01*
X039183Y011857D02*
X040843Y011857D01*
X040928Y011458D02*
X039183Y011458D01*
X039183Y011060D02*
X040894Y011060D01*
X040844Y010661D02*
X039183Y010661D01*
X042223Y009864D02*
X043494Y009864D01*
X044573Y009864D02*
X046574Y009864D01*
X046973Y010263D02*
X044723Y010263D01*
X044649Y010661D02*
X044631Y010661D01*
X046556Y011060D02*
X047962Y011060D01*
X047896Y011110D02*
X047642Y011215D01*
X047519Y011338D01*
X047476Y011295D01*
X047406Y011242D01*
X047330Y011198D01*
X047249Y011164D01*
X047164Y011141D01*
X047077Y011130D01*
X047033Y011130D01*
X047033Y011800D01*
X047033Y011800D01*
X047033Y011800D01*
X047033Y012470D01*
X047077Y012470D01*
X047164Y012459D01*
X047249Y012436D01*
X047330Y012402D01*
X047406Y012358D01*
X047476Y012305D01*
X047519Y012262D01*
X047642Y012385D01*
X047896Y012490D01*
X048171Y012490D01*
X048424Y012385D01*
X048618Y012191D01*
X048723Y011937D01*
X048723Y011663D01*
X048618Y011409D01*
X048424Y011215D01*
X048171Y011110D01*
X047896Y011110D01*
X048304Y011060D02*
X049110Y011060D01*
X049061Y010661D02*
X048623Y010661D01*
X048814Y010263D02*
X049663Y010263D01*
X049543Y009864D02*
X048923Y009864D01*
X048544Y009466D02*
X049675Y009466D01*
X049114Y009067D02*
X047624Y009067D01*
X048022Y009466D02*
X048323Y009466D01*
X046176Y009466D02*
X042142Y009466D01*
X042170Y009067D02*
X045777Y009067D01*
X045379Y008669D02*
X042223Y008669D01*
X046606Y010661D02*
X047371Y010661D01*
X047033Y011458D02*
X047033Y011458D01*
X047033Y011857D02*
X047033Y011857D01*
X047033Y012255D02*
X047033Y012255D01*
X045513Y012255D02*
X045433Y012255D01*
X045433Y012654D02*
X049163Y012654D01*
X049163Y012255D02*
X048554Y012255D01*
X048723Y011857D02*
X049163Y011857D01*
X049163Y011458D02*
X048639Y011458D01*
X050903Y011458D02*
X051928Y011458D01*
X051843Y011857D02*
X050903Y011857D01*
X050903Y012255D02*
X052013Y012255D01*
X051847Y012654D02*
X050903Y012654D01*
X050903Y013052D02*
X051891Y013052D01*
X053176Y013052D02*
X055275Y013052D01*
X055275Y013451D02*
X053135Y013451D01*
X053223Y013849D02*
X055275Y013849D01*
X055275Y014248D02*
X053062Y014248D01*
X053216Y014646D02*
X055275Y014646D01*
X055275Y015045D02*
X053179Y015045D01*
X053132Y015443D02*
X055275Y015443D01*
X055275Y015842D02*
X053223Y015842D01*
X053069Y016240D02*
X055275Y016240D01*
X055275Y016639D02*
X039183Y016639D01*
X039183Y016240D02*
X040998Y016240D01*
X042069Y016240D02*
X051998Y016240D01*
X049552Y015842D02*
X043058Y015842D01*
X043407Y015443D02*
X049192Y015443D01*
X049163Y015045D02*
X043433Y015045D01*
X043433Y014646D02*
X049163Y014646D01*
X049163Y014248D02*
X043433Y014248D01*
X043433Y013849D02*
X049163Y013849D01*
X049163Y013451D02*
X045501Y013451D01*
X045461Y013052D02*
X049163Y013052D01*
X053054Y012255D02*
X055275Y012255D01*
X055275Y011857D02*
X053223Y011857D01*
X053139Y011458D02*
X055275Y011458D01*
X055275Y011060D02*
X053173Y011060D01*
X053223Y010661D02*
X055275Y010661D01*
X055275Y010263D02*
X053047Y010263D01*
X053223Y009864D02*
X055275Y009864D01*
X052020Y010263D02*
X050903Y010263D01*
X050903Y010661D02*
X051844Y010661D01*
X051894Y011060D02*
X050903Y011060D01*
X050903Y009864D02*
X051843Y009864D01*
X053220Y012654D02*
X055275Y012654D01*
X044606Y013052D02*
X043433Y013052D01*
X043433Y013451D02*
X044565Y013451D01*
X042633Y013451D02*
X042135Y013451D01*
X042154Y013052D02*
X042633Y013052D01*
X042203Y012800D02*
X041533Y012800D01*
X040863Y012800D01*
X041533Y012800D01*
X041533Y012800D01*
X041533Y012800D01*
X042203Y012800D01*
X042188Y012654D02*
X042633Y012654D01*
X040879Y012654D02*
X039183Y012654D01*
X039183Y013052D02*
X040913Y013052D01*
X040931Y013451D02*
X039183Y013451D01*
X039183Y013849D02*
X040843Y013849D01*
X041005Y014248D02*
X039183Y014248D01*
X039183Y014646D02*
X040850Y014646D01*
X040888Y015045D02*
X039183Y015045D01*
X039183Y015443D02*
X040934Y015443D01*
X040843Y015842D02*
X039183Y015842D01*
X042179Y015045D02*
X042633Y015045D01*
X042633Y014646D02*
X042216Y014646D01*
X042062Y014248D02*
X042633Y014248D01*
X042633Y013849D02*
X042223Y013849D01*
X051639Y005082D02*
X051792Y005082D01*
X051394Y004684D02*
X051236Y004684D01*
X051043Y002293D02*
X048502Y002293D01*
X047565Y002293D02*
X047502Y002293D01*
D13*
X051533Y002300D03*
X049233Y005000D03*
X046683Y006050D03*
X045033Y006300D03*
X044283Y006250D03*
X043533Y006300D03*
X044533Y005800D03*
X049033Y006800D03*
X048883Y008500D03*
X049533Y008800D03*
X050033Y009800D03*
X048433Y009950D03*
X048133Y010600D03*
X046733Y010700D03*
X046133Y010800D03*
X049533Y010800D03*
X051533Y012800D03*
X045033Y013300D03*
X043533Y014300D03*
D14*
X049533Y015300D02*
X049533Y010800D01*
X048133Y010600D02*
X047833Y010600D01*
X043533Y006300D01*
X044283Y006250D02*
X047983Y009950D01*
X048433Y009950D01*
X050033Y009800D02*
X050033Y014300D01*
X050533Y014800D01*
X052533Y014800D01*
X052533Y015800D02*
X050033Y015800D01*
X049533Y015300D01*
X051033Y013800D02*
X050533Y013300D01*
X050533Y009800D01*
X049533Y008800D01*
X048883Y008500D02*
X047233Y008500D01*
X045033Y006300D01*
X046683Y006050D02*
X048283Y006050D01*
X048533Y005800D01*
X048533Y004300D01*
X048033Y003800D01*
X047033Y003800D02*
X047033Y003900D01*
X046383Y004550D01*
X043333Y004550D01*
X042008Y005875D01*
X041608Y005875D01*
X041533Y005800D01*
X041533Y004800D02*
X042533Y004800D01*
X043033Y004300D01*
X043033Y002800D01*
X043533Y002300D01*
X045033Y002300D01*
X045533Y002800D01*
X046033Y002800D01*
X047033Y002800D02*
X047033Y002300D01*
X046533Y001800D01*
X043033Y001800D01*
X042533Y002300D01*
X042533Y003300D01*
X042033Y003800D01*
X041533Y003800D01*
X049233Y005000D02*
X051033Y005000D01*
X051733Y005700D01*
X052433Y005700D01*
X052533Y005800D01*
X052533Y004800D02*
X052033Y004800D01*
X051533Y004300D01*
X051533Y002300D01*
X046133Y010800D02*
X045033Y010800D01*
X044533Y011300D01*
X051033Y013800D02*
X052533Y013800D01*
D15*
X045033Y013300D02*
X045033Y011800D01*
X044533Y011300D01*
X044033Y011300D01*
X043033Y010800D02*
X043033Y015300D01*
X042533Y015800D01*
X041533Y015800D01*
X043033Y010800D02*
X043533Y010300D01*
X044033Y010300D01*
M02*
